<mxfile host="app.diagrams.net" modified="2023-06-19T20:19:54.822Z" agent="Mozilla/5.0 (Windows NT 10.0; Win64; x64) AppleWebKit/537.36 (KHTML, like Gecko) Chrome/114.0.0.0 Safari/537.36" etag="Ft59aVokp3wdAlnPfkf4" version="21.4.0" type="device">
  <diagram id="C5RBs43oDa-KdzZeNtuy" name="Page-1">
    <mxGraphModel dx="2036" dy="2034" grid="0" gridSize="10" guides="1" tooltips="1" connect="1" arrows="1" fold="1" page="1" pageScale="1" pageWidth="827" pageHeight="1169" math="0" shadow="0">
      <root>
        <mxCell id="WIyWlLk6GJQsqaUBKTNV-0" />
        <mxCell id="WIyWlLk6GJQsqaUBKTNV-1" parent="WIyWlLk6GJQsqaUBKTNV-0" />
        <mxCell id="9w9tnTH3Nwo0CElRM9sm-150" value="No&lt;br&gt;&lt;br&gt;(Alternate functions not supported yet)" style="edgeStyle=orthogonalEdgeStyle;rounded=0;orthogonalLoop=1;jettySize=auto;html=1;exitX=0.5;exitY=1;exitDx=0;exitDy=0;entryX=0;entryY=0.5;entryDx=0;entryDy=0;entryPerimeter=0;labelBackgroundColor=none;" parent="WIyWlLk6GJQsqaUBKTNV-1" source="9w9tnTH3Nwo0CElRM9sm-97" target="9w9tnTH3Nwo0CElRM9sm-83" edge="1">
          <mxGeometry x="-0.0087" relative="1" as="geometry">
            <mxPoint x="-1" as="offset" />
          </mxGeometry>
        </mxCell>
        <mxCell id="CpGdyAeaTaRhoTdOTmtG-120" value="&lt;b&gt;gpio_setPinVal&lt;/b&gt;" style="rounded=0;whiteSpace=wrap;html=1;strokeColor=#FFFFFF;" parent="WIyWlLk6GJQsqaUBKTNV-1" vertex="1">
          <mxGeometry x="528" y="-1156" width="110" height="37" as="geometry" />
        </mxCell>
        <mxCell id="PaLshwyQZhTTM3AdKfok-19" value="&lt;font style=&quot;font-size: 14px;&quot;&gt;Port &amp;amp; Pin Check&lt;/font&gt;" style="swimlane;whiteSpace=wrap;html=1;rounded=1;fontSize=16;fontFamily=Calibri;fillColor=#ffe6cc;strokeColor=#d79b00;" parent="WIyWlLk6GJQsqaUBKTNV-1" vertex="1">
          <mxGeometry x="1329" y="-1163" width="313" height="369" as="geometry">
            <mxRectangle x="-207" y="152.5" width="134" height="31" as="alternateBounds" />
          </mxGeometry>
        </mxCell>
        <mxCell id="PaLshwyQZhTTM3AdKfok-53" value="No" style="edgeStyle=orthogonalEdgeStyle;rounded=0;orthogonalLoop=1;jettySize=auto;html=1;" parent="PaLshwyQZhTTM3AdKfok-19" source="PaLshwyQZhTTM3AdKfok-44" target="PaLshwyQZhTTM3AdKfok-56" edge="1">
          <mxGeometry relative="1" as="geometry">
            <mxPoint x="109" y="317" as="targetPoint" />
          </mxGeometry>
        </mxCell>
        <mxCell id="9w9tnTH3Nwo0CElRM9sm-243" value="Yes" style="edgeStyle=orthogonalEdgeStyle;rounded=0;orthogonalLoop=1;jettySize=auto;html=1;entryX=0.5;entryY=0.5;entryDx=0;entryDy=15;entryPerimeter=0;" parent="PaLshwyQZhTTM3AdKfok-19" source="PaLshwyQZhTTM3AdKfok-44" target="9w9tnTH3Nwo0CElRM9sm-0" edge="1">
          <mxGeometry relative="1" as="geometry" />
        </mxCell>
        <mxCell id="PaLshwyQZhTTM3AdKfok-44" value="&lt;font style=&quot;font-size: 11.29px;&quot; face=&quot;Calibri&quot;&gt;pin&amp;gt;=(#pins/portx)&lt;/font&gt;" style="rhombus;whiteSpace=wrap;html=1;fontSize=11.29;fillColor=#fff2cc;strokeColor=#d6b656;" parent="PaLshwyQZhTTM3AdKfok-19" vertex="1">
          <mxGeometry x="69" y="209" width="80" height="80" as="geometry" />
        </mxCell>
        <mxCell id="9w9tnTH3Nwo0CElRM9sm-241" value="Yes" style="edgeStyle=orthogonalEdgeStyle;rounded=0;orthogonalLoop=1;jettySize=auto;html=1;exitX=1;exitY=0.5;exitDx=0;exitDy=0;entryX=0.5;entryY=0.5;entryDx=0;entryDy=-15;entryPerimeter=0;" parent="PaLshwyQZhTTM3AdKfok-19" source="PaLshwyQZhTTM3AdKfok-46" target="9w9tnTH3Nwo0CElRM9sm-0" edge="1">
          <mxGeometry relative="1" as="geometry">
            <mxPoint x="201" y="131.99999999999977" as="targetPoint" />
          </mxGeometry>
        </mxCell>
        <mxCell id="9w9tnTH3Nwo0CElRM9sm-244" value="No" style="edgeStyle=orthogonalEdgeStyle;rounded=0;orthogonalLoop=1;jettySize=auto;html=1;" parent="PaLshwyQZhTTM3AdKfok-19" source="PaLshwyQZhTTM3AdKfok-46" target="PaLshwyQZhTTM3AdKfok-44" edge="1">
          <mxGeometry relative="1" as="geometry" />
        </mxCell>
        <mxCell id="PaLshwyQZhTTM3AdKfok-46" value="&lt;font style=&quot;font-size: 11.29px;&quot; face=&quot;Calibri&quot;&gt;port&amp;gt;=&lt;br&gt;total port&lt;br&gt;num?&lt;/font&gt;" style="rhombus;whiteSpace=wrap;html=1;fontSize=11.29;fillColor=#fff2cc;strokeColor=#d6b656;" parent="PaLshwyQZhTTM3AdKfok-19" vertex="1">
          <mxGeometry x="69" y="92" width="80" height="80" as="geometry" />
        </mxCell>
        <mxCell id="PaLshwyQZhTTM3AdKfok-56" value="&lt;font style=&quot;font-size: 11.29px;&quot;&gt;&lt;font face=&quot;Calibri&quot;&gt;return&lt;br&gt;GPIO_OK&lt;/font&gt;&lt;br&gt;&lt;/font&gt;" style="html=1;dashed=0;whiteSpace=wrap;shape=mxgraph.dfd.start;fillColor=#d5e8d4;strokeColor=#82b366;" parent="PaLshwyQZhTTM3AdKfok-19" vertex="1">
          <mxGeometry x="69" y="323" width="80" height="30" as="geometry" />
        </mxCell>
        <mxCell id="9w9tnTH3Nwo0CElRM9sm-0" value="&lt;font style=&quot;font-size: 11.29px;&quot;&gt;&lt;font face=&quot;Calibri&quot;&gt;return&lt;br&gt;GPIO_ERROR&lt;/font&gt;&lt;br&gt;&lt;/font&gt;" style="html=1;dashed=0;whiteSpace=wrap;shape=mxgraph.dfd.start;fillColor=#f8cecc;strokeColor=#b85450;" parent="PaLshwyQZhTTM3AdKfok-19" vertex="1">
          <mxGeometry x="189" y="179" width="83.5" height="30" as="geometry" />
        </mxCell>
        <mxCell id="9w9tnTH3Nwo0CElRM9sm-246" value="" style="edgeStyle=orthogonalEdgeStyle;rounded=0;orthogonalLoop=1;jettySize=auto;html=1;" parent="PaLshwyQZhTTM3AdKfok-19" source="9w9tnTH3Nwo0CElRM9sm-245" target="PaLshwyQZhTTM3AdKfok-46" edge="1">
          <mxGeometry relative="1" as="geometry" />
        </mxCell>
        <mxCell id="9w9tnTH3Nwo0CElRM9sm-245" value="&lt;font face=&quot;Calibri&quot; style=&quot;font-size: 11.29px;&quot;&gt;Start&lt;/font&gt;" style="html=1;dashed=0;whiteSpace=wrap;shape=mxgraph.dfd.start;fillColor=#dae8fc;strokeColor=#6c8ebf;" parent="PaLshwyQZhTTM3AdKfok-19" vertex="1">
          <mxGeometry x="69" y="37" width="80" height="30" as="geometry" />
        </mxCell>
        <mxCell id="9w9tnTH3Nwo0CElRM9sm-166" value="" style="edgeStyle=orthogonalEdgeStyle;rounded=0;orthogonalLoop=1;jettySize=auto;html=1;" parent="WIyWlLk6GJQsqaUBKTNV-1" source="PaLshwyQZhTTM3AdKfok-111" target="9w9tnTH3Nwo0CElRM9sm-165" edge="1">
          <mxGeometry relative="1" as="geometry" />
        </mxCell>
        <mxCell id="PaLshwyQZhTTM3AdKfok-111" value="&lt;font face=&quot;Calibri&quot;&gt;Get port, pin&lt;br style=&quot;font-size: 11.29px;&quot;&gt;&amp;amp; (&amp;amp;Val)&lt;/font&gt;" style="shape=parallelogram;perimeter=parallelogramPerimeter;whiteSpace=wrap;html=1;fixedSize=1;fontSize=11.29;fillColor=#d5e8d4;strokeColor=#82b366;size=0;" parent="WIyWlLk6GJQsqaUBKTNV-1" vertex="1">
          <mxGeometry x="494.5" y="-422" width="110" height="40" as="geometry" />
        </mxCell>
        <mxCell id="PaLshwyQZhTTM3AdKfok-112" value="" style="edgeStyle=orthogonalEdgeStyle;rounded=0;orthogonalLoop=1;jettySize=auto;html=1;" parent="WIyWlLk6GJQsqaUBKTNV-1" source="PaLshwyQZhTTM3AdKfok-113" target="PaLshwyQZhTTM3AdKfok-111" edge="1">
          <mxGeometry relative="1" as="geometry" />
        </mxCell>
        <mxCell id="PaLshwyQZhTTM3AdKfok-113" value="&lt;font face=&quot;Calibri&quot; style=&quot;font-size: 11.29px;&quot;&gt;Start&lt;/font&gt;" style="html=1;dashed=0;whiteSpace=wrap;shape=mxgraph.dfd.start;fillColor=#dae8fc;strokeColor=#6c8ebf;" parent="WIyWlLk6GJQsqaUBKTNV-1" vertex="1">
          <mxGeometry x="509.5" y="-481" width="80" height="30" as="geometry" />
        </mxCell>
        <mxCell id="PaLshwyQZhTTM3AdKfok-114" value="&lt;b&gt;gpio_getPinVal&lt;/b&gt;" style="rounded=0;whiteSpace=wrap;html=1;strokeColor=#FFFFFF;" parent="WIyWlLk6GJQsqaUBKTNV-1" vertex="1">
          <mxGeometry x="645.25" y="-477" width="110" height="37" as="geometry" />
        </mxCell>
        <mxCell id="PaLshwyQZhTTM3AdKfok-125" value="Fail" style="edgeStyle=orthogonalEdgeStyle;rounded=1;orthogonalLoop=1;jettySize=auto;html=1;exitX=1;exitY=0.5;exitDx=0;exitDy=0;entryX=0.5;entryY=0.5;entryDx=0;entryDy=15;entryPerimeter=0;" parent="WIyWlLk6GJQsqaUBKTNV-1" source="PaLshwyQZhTTM3AdKfok-116" target="PaLshwyQZhTTM3AdKfok-124" edge="1">
          <mxGeometry x="-0.3462" relative="1" as="geometry">
            <mxPoint as="offset" />
            <mxPoint x="674.25" y="-143" as="targetPoint" />
          </mxGeometry>
        </mxCell>
        <mxCell id="9w9tnTH3Nwo0CElRM9sm-168" value="pass" style="edgeStyle=orthogonalEdgeStyle;rounded=0;orthogonalLoop=1;jettySize=auto;html=1;" parent="WIyWlLk6GJQsqaUBKTNV-1" source="PaLshwyQZhTTM3AdKfok-116" target="PaLshwyQZhTTM3AdKfok-121" edge="1">
          <mxGeometry relative="1" as="geometry" />
        </mxCell>
        <mxCell id="PaLshwyQZhTTM3AdKfok-116" value="&lt;span style=&quot;font-size: 11.29px;&quot;&gt;Port &amp;amp; Pin Check&lt;/span&gt;" style="shape=process;whiteSpace=wrap;html=1;backgroundOutline=1;fontSize=11.29;fillColor=#ffe6cc;strokeColor=#d79b00;fontFamily=Calibri;" parent="WIyWlLk6GJQsqaUBKTNV-1" vertex="1">
          <mxGeometry x="491.5" y="-251.75" width="116" height="46" as="geometry" />
        </mxCell>
        <mxCell id="PaLshwyQZhTTM3AdKfok-119" value="&lt;font style=&quot;font-size: 11.29px;&quot;&gt;&lt;font face=&quot;Calibri&quot;&gt;return&lt;br&gt;GPIO_OK&lt;/font&gt;&lt;br&gt;&lt;/font&gt;" style="html=1;dashed=0;whiteSpace=wrap;shape=mxgraph.dfd.start;fillColor=#d5e8d4;strokeColor=#82b366;" parent="WIyWlLk6GJQsqaUBKTNV-1" vertex="1">
          <mxGeometry x="509.5" y="-78.5" width="80" height="30" as="geometry" />
        </mxCell>
        <mxCell id="PaLshwyQZhTTM3AdKfok-120" value="" style="edgeStyle=orthogonalEdgeStyle;rounded=0;orthogonalLoop=1;jettySize=auto;html=1;" parent="WIyWlLk6GJQsqaUBKTNV-1" source="PaLshwyQZhTTM3AdKfok-121" target="PaLshwyQZhTTM3AdKfok-119" edge="1">
          <mxGeometry relative="1" as="geometry" />
        </mxCell>
        <mxCell id="PaLshwyQZhTTM3AdKfok-121" value="&lt;font style=&quot;font-size: 11.29px;&quot; face=&quot;Calibri&quot;&gt;&amp;amp;val = &lt;br&gt;GetBit(&lt;/font&gt;GPIODATA(port)&lt;font style=&quot;font-size: 11.29px;&quot; face=&quot;Calibri&quot;&gt;, pin)&amp;nbsp; &amp;nbsp;&lt;/font&gt;" style="shape=parallelogram;perimeter=parallelogramPerimeter;rounded=0;whiteSpace=wrap;html=1;fontSize=11.29;fillColor=#e1d5e7;strokeColor=#9673a6;" parent="WIyWlLk6GJQsqaUBKTNV-1" vertex="1">
          <mxGeometry x="448" y="-152.5" width="203" height="43.75" as="geometry" />
        </mxCell>
        <mxCell id="PaLshwyQZhTTM3AdKfok-124" value="&lt;font style=&quot;font-size: 11.29px;&quot;&gt;&lt;font face=&quot;Calibri&quot;&gt;return&lt;br&gt;GPIO_ERROR&lt;/font&gt;&lt;br&gt;&lt;/font&gt;" style="html=1;dashed=0;whiteSpace=wrap;shape=mxgraph.dfd.start;fillColor=#f8cecc;strokeColor=#b85450;" parent="WIyWlLk6GJQsqaUBKTNV-1" vertex="1">
          <mxGeometry x="625.5" y="-293" width="83.5" height="30" as="geometry" />
        </mxCell>
        <mxCell id="PaLshwyQZhTTM3AdKfok-172" value="&lt;b&gt;GPIO_togPinVal&lt;/b&gt;" style="rounded=0;whiteSpace=wrap;html=1;strokeColor=#FFFFFF;" parent="WIyWlLk6GJQsqaUBKTNV-1" vertex="1">
          <mxGeometry x="101.00000000000006" y="-542" width="110" height="37" as="geometry" />
        </mxCell>
        <mxCell id="PaLshwyQZhTTM3AdKfok-176" value="Yes" style="edgeStyle=orthogonalEdgeStyle;rounded=0;orthogonalLoop=1;jettySize=auto;html=1;" parent="WIyWlLk6GJQsqaUBKTNV-1" target="PaLshwyQZhTTM3AdKfok-180" edge="1">
          <mxGeometry relative="1" as="geometry">
            <mxPoint x="157.50000000000006" y="-228.0000000000001" as="sourcePoint" />
          </mxGeometry>
        </mxCell>
        <mxCell id="PaLshwyQZhTTM3AdKfok-178" value="&lt;font style=&quot;font-size: 11.29px;&quot;&gt;&lt;font face=&quot;Calibri&quot;&gt;return&lt;br&gt;DIO_OK&lt;/font&gt;&lt;br&gt;&lt;/font&gt;" style="html=1;dashed=0;whiteSpace=wrap;shape=mxgraph.dfd.start;fillColor=#d5e8d4;strokeColor=#82b366;" parent="WIyWlLk6GJQsqaUBKTNV-1" vertex="1">
          <mxGeometry x="117.50000000000006" y="-105.5" width="80" height="30" as="geometry" />
        </mxCell>
        <mxCell id="PaLshwyQZhTTM3AdKfok-179" value="" style="edgeStyle=orthogonalEdgeStyle;rounded=0;orthogonalLoop=1;jettySize=auto;html=1;" parent="WIyWlLk6GJQsqaUBKTNV-1" source="PaLshwyQZhTTM3AdKfok-180" target="PaLshwyQZhTTM3AdKfok-178" edge="1">
          <mxGeometry relative="1" as="geometry" />
        </mxCell>
        <mxCell id="PaLshwyQZhTTM3AdKfok-180" value="&lt;font style=&quot;font-size: 11.29px;&quot; face=&quot;Calibri&quot;&gt;TogBit(&lt;/font&gt;GPIODATA(port)&lt;font style=&quot;font-size: 11.29px;&quot; face=&quot;Calibri&quot;&gt;, pin)&amp;nbsp; &amp;nbsp;&lt;br&gt;&lt;/font&gt;" style="shape=parallelogram;perimeter=parallelogramPerimeter;rounded=0;whiteSpace=wrap;html=1;fontSize=11.29;fillColor=#e1d5e7;strokeColor=#9673a6;" parent="WIyWlLk6GJQsqaUBKTNV-1" vertex="1">
          <mxGeometry x="59.00000000000006" y="-184.5" width="197" height="39" as="geometry" />
        </mxCell>
        <mxCell id="PaLshwyQZhTTM3AdKfok-200" value="Yes" style="edgeStyle=orthogonalEdgeStyle;rounded=0;orthogonalLoop=1;jettySize=auto;html=1;fontSize=11.29;" parent="WIyWlLk6GJQsqaUBKTNV-1" source="PaLshwyQZhTTM3AdKfok-202" edge="1">
          <mxGeometry relative="1" as="geometry">
            <mxPoint x="170.97058823529414" y="-818.0000000000002" as="targetPoint" />
          </mxGeometry>
        </mxCell>
        <mxCell id="PaLshwyQZhTTM3AdKfok-217" value="No" style="edgeStyle=orthogonalEdgeStyle;rounded=0;orthogonalLoop=1;jettySize=auto;html=1;" parent="WIyWlLk6GJQsqaUBKTNV-1" source="PaLshwyQZhTTM3AdKfok-202" target="PaLshwyQZhTTM3AdKfok-209" edge="1">
          <mxGeometry relative="1" as="geometry" />
        </mxCell>
        <mxCell id="PaLshwyQZhTTM3AdKfok-202" value="&lt;font style=&quot;font-size: 11.29px;&quot; face=&quot;Calibri&quot;&gt;Port valid?&lt;/font&gt;" style="rhombus;whiteSpace=wrap;html=1;fontSize=11.29;fillColor=#fff2cc;strokeColor=#d6b656;" parent="WIyWlLk6GJQsqaUBKTNV-1" vertex="1">
          <mxGeometry x="131" y="-934" width="80" height="80" as="geometry" />
        </mxCell>
        <mxCell id="PaLshwyQZhTTM3AdKfok-203" value="Yes" style="edgeStyle=orthogonalEdgeStyle;rounded=0;orthogonalLoop=1;jettySize=auto;html=1;" parent="WIyWlLk6GJQsqaUBKTNV-1" target="PaLshwyQZhTTM3AdKfok-212" edge="1">
          <mxGeometry x="0.2733" y="-14" relative="1" as="geometry">
            <mxPoint x="170.97058823529414" y="-740" as="sourcePoint" />
            <mxPoint as="offset" />
          </mxGeometry>
        </mxCell>
        <mxCell id="PaLshwyQZhTTM3AdKfok-205" value="" style="edgeStyle=orthogonalEdgeStyle;rounded=0;orthogonalLoop=1;jettySize=auto;html=1;fontSize=11.29;" parent="WIyWlLk6GJQsqaUBKTNV-1" source="PaLshwyQZhTTM3AdKfok-206" target="PaLshwyQZhTTM3AdKfok-202" edge="1">
          <mxGeometry relative="1" as="geometry" />
        </mxCell>
        <mxCell id="PaLshwyQZhTTM3AdKfok-206" value="&lt;font face=&quot;Calibri&quot;&gt;get port and&lt;br style=&quot;font-size: 11.29px;&quot;&gt;portValue&lt;/font&gt;" style="shape=parallelogram;perimeter=parallelogramPerimeter;whiteSpace=wrap;html=1;fixedSize=1;fontSize=11.29;fillColor=#d5e8d4;strokeColor=#82b366;size=-3;" parent="WIyWlLk6GJQsqaUBKTNV-1" vertex="1">
          <mxGeometry x="116" y="-1003" width="110" height="40" as="geometry" />
        </mxCell>
        <mxCell id="PaLshwyQZhTTM3AdKfok-207" value="" style="edgeStyle=orthogonalEdgeStyle;rounded=0;orthogonalLoop=1;jettySize=auto;html=1;" parent="WIyWlLk6GJQsqaUBKTNV-1" source="PaLshwyQZhTTM3AdKfok-208" target="PaLshwyQZhTTM3AdKfok-206" edge="1">
          <mxGeometry relative="1" as="geometry" />
        </mxCell>
        <mxCell id="PaLshwyQZhTTM3AdKfok-208" value="&lt;font face=&quot;Calibri&quot; style=&quot;font-size: 11.29px;&quot;&gt;Start&lt;/font&gt;" style="html=1;dashed=0;whiteSpace=wrap;shape=mxgraph.dfd.start;fillColor=#dae8fc;strokeColor=#6c8ebf;" parent="WIyWlLk6GJQsqaUBKTNV-1" vertex="1">
          <mxGeometry x="131" y="-1063" width="80" height="30" as="geometry" />
        </mxCell>
        <mxCell id="PaLshwyQZhTTM3AdKfok-209" value="&lt;font style=&quot;font-size: 11.29px;&quot;&gt;&lt;font face=&quot;Calibri&quot;&gt;return&lt;br&gt;GPIO_ERROR&lt;/font&gt;&lt;br&gt;&lt;/font&gt;" style="html=1;dashed=0;whiteSpace=wrap;shape=mxgraph.dfd.start;fillColor=#f8cecc;strokeColor=#b85450;" parent="WIyWlLk6GJQsqaUBKTNV-1" vertex="1">
          <mxGeometry x="224.75" y="-850" width="83.5" height="30" as="geometry" />
        </mxCell>
        <mxCell id="PaLshwyQZhTTM3AdKfok-210" value="&lt;font style=&quot;font-size: 11.29px;&quot;&gt;&lt;font face=&quot;Calibri&quot;&gt;return&lt;br&gt;GPIO_OK&lt;/font&gt;&lt;br&gt;&lt;/font&gt;" style="html=1;dashed=0;whiteSpace=wrap;shape=mxgraph.dfd.start;fillColor=#d5e8d4;strokeColor=#82b366;" parent="WIyWlLk6GJQsqaUBKTNV-1" vertex="1">
          <mxGeometry x="131" y="-651" width="80" height="30" as="geometry" />
        </mxCell>
        <mxCell id="PaLshwyQZhTTM3AdKfok-215" style="edgeStyle=orthogonalEdgeStyle;rounded=0;orthogonalLoop=1;jettySize=auto;html=1;exitX=0.5;exitY=1;exitDx=0;exitDy=0;entryX=0.5;entryY=0.5;entryDx=0;entryDy=-15.000000000000002;entryPerimeter=0;" parent="WIyWlLk6GJQsqaUBKTNV-1" source="PaLshwyQZhTTM3AdKfok-212" target="PaLshwyQZhTTM3AdKfok-210" edge="1">
          <mxGeometry relative="1" as="geometry" />
        </mxCell>
        <mxCell id="PaLshwyQZhTTM3AdKfok-212" value="&lt;font face=&quot;Calibri&quot;&gt;GPIODATA(port) = portValue&lt;/font&gt;" style="rounded=0;whiteSpace=wrap;html=1;fontSize=11.29;fillColor=#d5e8d4;strokeColor=#82b366;" parent="WIyWlLk6GJQsqaUBKTNV-1" vertex="1">
          <mxGeometry x="121" y="-715" width="100" height="39" as="geometry" />
        </mxCell>
        <mxCell id="PaLshwyQZhTTM3AdKfok-214" value="&lt;b&gt;gpio_setPortVal&lt;/b&gt;" style="rounded=0;whiteSpace=wrap;html=1;strokeColor=#FFFFFF;" parent="WIyWlLk6GJQsqaUBKTNV-1" vertex="1">
          <mxGeometry x="116" y="-1156" width="120" height="60" as="geometry" />
        </mxCell>
        <mxCell id="PaLshwyQZhTTM3AdKfok-235" style="edgeStyle=orthogonalEdgeStyle;rounded=0;orthogonalLoop=1;jettySize=auto;html=1;exitX=0.5;exitY=1;exitDx=0;exitDy=0;entryX=0.5;entryY=0;entryDx=0;entryDy=0;" parent="WIyWlLk6GJQsqaUBKTNV-1" source="PaLshwyQZhTTM3AdKfok-236" target="PaLshwyQZhTTM3AdKfok-241" edge="1">
          <mxGeometry relative="1" as="geometry" />
        </mxCell>
        <mxCell id="PaLshwyQZhTTM3AdKfok-236" value="&lt;font face=&quot;Calibri&quot;&gt;Get port, pin&lt;br style=&quot;font-size: 11.29px;&quot;&gt;&amp;amp; pinDir&lt;/font&gt;" style="shape=parallelogram;perimeter=parallelogramPerimeter;whiteSpace=wrap;html=1;fixedSize=1;fontSize=11.29;fillColor=#d5e8d4;strokeColor=#82b366;size=0;" parent="WIyWlLk6GJQsqaUBKTNV-1" vertex="1">
          <mxGeometry x="455" y="-1048" width="110" height="40" as="geometry" />
        </mxCell>
        <mxCell id="PaLshwyQZhTTM3AdKfok-237" value="" style="edgeStyle=orthogonalEdgeStyle;rounded=0;orthogonalLoop=1;jettySize=auto;html=1;" parent="WIyWlLk6GJQsqaUBKTNV-1" source="PaLshwyQZhTTM3AdKfok-238" target="PaLshwyQZhTTM3AdKfok-236" edge="1">
          <mxGeometry relative="1" as="geometry" />
        </mxCell>
        <mxCell id="PaLshwyQZhTTM3AdKfok-238" value="&lt;font face=&quot;Calibri&quot; style=&quot;font-size: 11.29px;&quot;&gt;Start&lt;/font&gt;" style="html=1;dashed=0;whiteSpace=wrap;shape=mxgraph.dfd.start;fillColor=#dae8fc;strokeColor=#6c8ebf;" parent="WIyWlLk6GJQsqaUBKTNV-1" vertex="1">
          <mxGeometry x="470" y="-1107" width="80" height="30" as="geometry" />
        </mxCell>
        <mxCell id="PaLshwyQZhTTM3AdKfok-239" value="Pass" style="edgeStyle=orthogonalEdgeStyle;rounded=0;orthogonalLoop=1;jettySize=auto;html=1;entryX=0.5;entryY=0;entryDx=0;entryDy=0;" parent="WIyWlLk6GJQsqaUBKTNV-1" source="PaLshwyQZhTTM3AdKfok-241" target="9w9tnTH3Nwo0CElRM9sm-2" edge="1">
          <mxGeometry relative="1" as="geometry" />
        </mxCell>
        <mxCell id="PaLshwyQZhTTM3AdKfok-240" value="Fail" style="edgeStyle=orthogonalEdgeStyle;rounded=1;orthogonalLoop=1;jettySize=auto;html=1;" parent="WIyWlLk6GJQsqaUBKTNV-1" source="PaLshwyQZhTTM3AdKfok-241" target="PaLshwyQZhTTM3AdKfok-242" edge="1">
          <mxGeometry relative="1" as="geometry">
            <Array as="points">
              <mxPoint x="663" y="-957" />
            </Array>
          </mxGeometry>
        </mxCell>
        <mxCell id="PaLshwyQZhTTM3AdKfok-241" value="&lt;font style=&quot;font-size: 11.29px;&quot;&gt;Port &amp;amp; Pin Check&lt;/font&gt;" style="shape=process;whiteSpace=wrap;html=1;backgroundOutline=1;fontSize=11.29;fillColor=#ffe6cc;strokeColor=#d79b00;fontFamily=Calibri;" parent="WIyWlLk6GJQsqaUBKTNV-1" vertex="1">
          <mxGeometry x="452" y="-980" width="116" height="46" as="geometry" />
        </mxCell>
        <mxCell id="PaLshwyQZhTTM3AdKfok-242" value="&lt;font style=&quot;font-size: 11.29px;&quot;&gt;&lt;font face=&quot;Calibri&quot;&gt;return&lt;br&gt;GPIO_ERROR&lt;/font&gt;&lt;br&gt;&lt;/font&gt;" style="html=1;dashed=0;whiteSpace=wrap;shape=mxgraph.dfd.start;fillColor=#f8cecc;strokeColor=#b85450;" parent="WIyWlLk6GJQsqaUBKTNV-1" vertex="1">
          <mxGeometry x="621.75" y="-920.5" width="83.5" height="30" as="geometry" />
        </mxCell>
        <mxCell id="PaLshwyQZhTTM3AdKfok-243" value="No" style="edgeStyle=orthogonalEdgeStyle;rounded=0;orthogonalLoop=1;jettySize=auto;html=1;exitX=0.5;exitY=1;exitDx=0;exitDy=0;entryX=0.5;entryY=0;entryDx=0;entryDy=0;" parent="WIyWlLk6GJQsqaUBKTNV-1" source="PaLshwyQZhTTM3AdKfok-245" target="PaLshwyQZhTTM3AdKfok-250" edge="1">
          <mxGeometry relative="1" as="geometry" />
        </mxCell>
        <mxCell id="PaLshwyQZhTTM3AdKfok-244" value="Yes" style="edgeStyle=orthogonalEdgeStyle;rounded=0;orthogonalLoop=1;jettySize=auto;html=1;" parent="WIyWlLk6GJQsqaUBKTNV-1" source="PaLshwyQZhTTM3AdKfok-245" target="PaLshwyQZhTTM3AdKfok-247" edge="1">
          <mxGeometry relative="1" as="geometry" />
        </mxCell>
        <mxCell id="PaLshwyQZhTTM3AdKfok-245" value="&lt;font face=&quot;Calibri&quot;&gt;pinVal =&amp;nbsp;&lt;br style=&quot;font-size: 11.29px;&quot;&gt;low?&lt;/font&gt;" style="rhombus;whiteSpace=wrap;html=1;fontSize=11.29;fillColor=#fff2cc;strokeColor=#d6b656;" parent="WIyWlLk6GJQsqaUBKTNV-1" vertex="1">
          <mxGeometry x="470" y="-792" width="80" height="80" as="geometry" />
        </mxCell>
        <mxCell id="PaLshwyQZhTTM3AdKfok-246" style="edgeStyle=orthogonalEdgeStyle;rounded=1;orthogonalLoop=1;jettySize=auto;html=1;exitX=1;exitY=0.5;exitDx=0;exitDy=0;entryX=0.5;entryY=0.5;entryDx=0;entryDy=-15;entryPerimeter=0;" parent="WIyWlLk6GJQsqaUBKTNV-1" source="PaLshwyQZhTTM3AdKfok-247" target="PaLshwyQZhTTM3AdKfok-253" edge="1">
          <mxGeometry relative="1" as="geometry" />
        </mxCell>
        <mxCell id="PaLshwyQZhTTM3AdKfok-247" value="&lt;font style=&quot;font-size: 11.29px;&quot; face=&quot;Calibri&quot;&gt;ClrBit&lt;br&gt;(GPIODATA(port), pin)&amp;nbsp; &amp;nbsp;&lt;/font&gt;" style="shape=parallelogram;perimeter=parallelogramPerimeter;rounded=0;whiteSpace=wrap;html=1;fontSize=11.29;fillColor=#e1d5e7;strokeColor=#9673a6;" parent="WIyWlLk6GJQsqaUBKTNV-1" vertex="1">
          <mxGeometry x="590" y="-772.5" width="147" height="41" as="geometry" />
        </mxCell>
        <mxCell id="PaLshwyQZhTTM3AdKfok-248" value="No" style="edgeStyle=orthogonalEdgeStyle;rounded=0;orthogonalLoop=1;jettySize=auto;html=1;" parent="WIyWlLk6GJQsqaUBKTNV-1" source="PaLshwyQZhTTM3AdKfok-250" edge="1">
          <mxGeometry relative="1" as="geometry">
            <mxPoint x="510.0588235294117" y="-565.5" as="targetPoint" />
          </mxGeometry>
        </mxCell>
        <mxCell id="PaLshwyQZhTTM3AdKfok-249" value="Yes" style="edgeStyle=orthogonalEdgeStyle;rounded=0;orthogonalLoop=1;jettySize=auto;html=1;" parent="WIyWlLk6GJQsqaUBKTNV-1" source="PaLshwyQZhTTM3AdKfok-250" target="PaLshwyQZhTTM3AdKfok-252" edge="1">
          <mxGeometry relative="1" as="geometry" />
        </mxCell>
        <mxCell id="PaLshwyQZhTTM3AdKfok-250" value="&lt;font face=&quot;Calibri&quot;&gt;pinVal =&amp;nbsp;&lt;br style=&quot;font-size: 11.29px;&quot;&gt;high?&lt;/font&gt;" style="rhombus;whiteSpace=wrap;html=1;fontSize=11.29;fillColor=#fff2cc;strokeColor=#d6b656;" parent="WIyWlLk6GJQsqaUBKTNV-1" vertex="1">
          <mxGeometry x="470" y="-685" width="80" height="80" as="geometry" />
        </mxCell>
        <mxCell id="PaLshwyQZhTTM3AdKfok-251" style="edgeStyle=orthogonalEdgeStyle;rounded=1;orthogonalLoop=1;jettySize=auto;html=1;exitX=1;exitY=0.5;exitDx=0;exitDy=0;entryX=0.5;entryY=0.5;entryDx=0;entryDy=15;entryPerimeter=0;" parent="WIyWlLk6GJQsqaUBKTNV-1" source="PaLshwyQZhTTM3AdKfok-252" target="PaLshwyQZhTTM3AdKfok-253" edge="1">
          <mxGeometry relative="1" as="geometry" />
        </mxCell>
        <mxCell id="PaLshwyQZhTTM3AdKfok-252" value="&lt;font style=&quot;font-size: 11.29px;&quot; face=&quot;Calibri&quot;&gt;SetBit&lt;br&gt;&lt;/font&gt;&lt;font style=&quot;font-size: 11.29px;&quot; data-font-src=&quot;https://fonts.googleapis.com/css?family=calibri&quot; face=&quot;calibri&quot;&gt;(GPIODATA(port), pin)&amp;nbsp; &amp;nbsp;&lt;/font&gt;&lt;font style=&quot;font-size: 11.29px;&quot; face=&quot;Calibri&quot;&gt;&lt;br&gt;&lt;/font&gt;" style="shape=parallelogram;perimeter=parallelogramPerimeter;rounded=0;whiteSpace=wrap;html=1;fontSize=11.29;fillColor=#e1d5e7;strokeColor=#9673a6;" parent="WIyWlLk6GJQsqaUBKTNV-1" vertex="1">
          <mxGeometry x="592" y="-664" width="143" height="39" as="geometry" />
        </mxCell>
        <mxCell id="PaLshwyQZhTTM3AdKfok-253" value="&lt;font style=&quot;font-size: 11.29px;&quot;&gt;&lt;font face=&quot;Calibri&quot;&gt;return&lt;br&gt;GPIO_OK&lt;/font&gt;&lt;br&gt;&lt;/font&gt;" style="html=1;dashed=0;whiteSpace=wrap;shape=mxgraph.dfd.start;fillColor=#d5e8d4;strokeColor=#82b366;" parent="WIyWlLk6GJQsqaUBKTNV-1" vertex="1">
          <mxGeometry x="739" y="-714.5" width="80" height="30" as="geometry" />
        </mxCell>
        <mxCell id="PaLshwyQZhTTM3AdKfok-254" value="&lt;font style=&quot;font-size: 11.29px;&quot;&gt;&lt;font face=&quot;Calibri&quot;&gt;return&lt;br&gt;GPIO_ERROR&lt;/font&gt;&lt;br&gt;&lt;/font&gt;" style="html=1;dashed=0;whiteSpace=wrap;shape=mxgraph.dfd.start;fillColor=#f8cecc;strokeColor=#b85450;" parent="WIyWlLk6GJQsqaUBKTNV-1" vertex="1">
          <mxGeometry x="470" y="-567.5" width="83.5" height="30" as="geometry" />
        </mxCell>
        <mxCell id="9w9tnTH3Nwo0CElRM9sm-4" value="Yes" style="edgeStyle=orthogonalEdgeStyle;rounded=0;orthogonalLoop=1;jettySize=auto;html=1;exitX=0.5;exitY=1;exitDx=0;exitDy=0;entryX=0.5;entryY=0;entryDx=0;entryDy=0;" parent="WIyWlLk6GJQsqaUBKTNV-1" source="9w9tnTH3Nwo0CElRM9sm-2" target="PaLshwyQZhTTM3AdKfok-245" edge="1">
          <mxGeometry relative="1" as="geometry" />
        </mxCell>
        <mxCell id="9w9tnTH3Nwo0CElRM9sm-5" value="No" style="edgeStyle=orthogonalEdgeStyle;rounded=1;orthogonalLoop=1;jettySize=auto;html=1;exitX=1;exitY=0.5;exitDx=0;exitDy=0;entryX=0.5;entryY=0.5;entryDx=0;entryDy=15;entryPerimeter=0;" parent="WIyWlLk6GJQsqaUBKTNV-1" source="9w9tnTH3Nwo0CElRM9sm-2" target="PaLshwyQZhTTM3AdKfok-242" edge="1">
          <mxGeometry relative="1" as="geometry" />
        </mxCell>
        <mxCell id="9w9tnTH3Nwo0CElRM9sm-2" value="&lt;font face=&quot;Calibri&quot;&gt;pinDir ==&amp;nbsp;&lt;br style=&quot;font-size: 11.29px;&quot;&gt;output?&lt;/font&gt;" style="rhombus;whiteSpace=wrap;html=1;fontSize=11.29;fillColor=#fff2cc;strokeColor=#d6b656;" parent="WIyWlLk6GJQsqaUBKTNV-1" vertex="1">
          <mxGeometry x="470" y="-899" width="80" height="80" as="geometry" />
        </mxCell>
        <mxCell id="9w9tnTH3Nwo0CElRM9sm-40" value="" style="edgeStyle=orthogonalEdgeStyle;rounded=0;orthogonalLoop=1;jettySize=auto;html=1;" parent="WIyWlLk6GJQsqaUBKTNV-1" source="9w9tnTH3Nwo0CElRM9sm-25" target="9w9tnTH3Nwo0CElRM9sm-28" edge="1">
          <mxGeometry relative="1" as="geometry" />
        </mxCell>
        <mxCell id="9w9tnTH3Nwo0CElRM9sm-25" value="&lt;font style=&quot;font-size: 11.29px;&quot; face=&quot;Calibri&quot;&gt;SET_BIT&lt;br&gt;(GPIOIM(port), pin)&lt;/font&gt;" style="rounded=0;whiteSpace=wrap;html=1;fontSize=11.29;fillColor=#d5e8d4;strokeColor=#82b366;" parent="WIyWlLk6GJQsqaUBKTNV-1" vertex="1">
          <mxGeometry x="50" y="293" width="109.75" height="44" as="geometry" />
        </mxCell>
        <mxCell id="9w9tnTH3Nwo0CElRM9sm-43" value="" style="edgeStyle=orthogonalEdgeStyle;rounded=0;orthogonalLoop=1;jettySize=auto;html=1;" parent="WIyWlLk6GJQsqaUBKTNV-1" source="9w9tnTH3Nwo0CElRM9sm-28" target="9w9tnTH3Nwo0CElRM9sm-42" edge="1">
          <mxGeometry relative="1" as="geometry" />
        </mxCell>
        <mxCell id="9w9tnTH3Nwo0CElRM9sm-28" value="&lt;font face=&quot;Calibri&quot; style=&quot;font-size: 11.29px;&quot;&gt;NVIC enable IRQn&lt;/font&gt;" style="rounded=0;whiteSpace=wrap;html=1;fontSize=11.29;fillColor=#d5e8d4;strokeColor=#82b366;" parent="WIyWlLk6GJQsqaUBKTNV-1" vertex="1">
          <mxGeometry x="54.879999999999995" y="367" width="100" height="44" as="geometry" />
        </mxCell>
        <mxCell id="9w9tnTH3Nwo0CElRM9sm-29" value="&lt;font style=&quot;font-size: 15px;&quot;&gt;&lt;b&gt;gpio_enableInt&lt;/b&gt;&lt;/font&gt;" style="rounded=0;whiteSpace=wrap;html=1;strokeColor=#FFFFFF;" parent="WIyWlLk6GJQsqaUBKTNV-1" vertex="1">
          <mxGeometry x="7.1299999999999955" y="14" width="195.75" height="42" as="geometry" />
        </mxCell>
        <mxCell id="9w9tnTH3Nwo0CElRM9sm-30" style="edgeStyle=orthogonalEdgeStyle;rounded=0;orthogonalLoop=1;jettySize=auto;html=1;exitX=0.5;exitY=1;exitDx=0;exitDy=0;entryX=0.5;entryY=0;entryDx=0;entryDy=0;" parent="WIyWlLk6GJQsqaUBKTNV-1" source="9w9tnTH3Nwo0CElRM9sm-31" target="9w9tnTH3Nwo0CElRM9sm-36" edge="1">
          <mxGeometry relative="1" as="geometry" />
        </mxCell>
        <mxCell id="9w9tnTH3Nwo0CElRM9sm-31" value="&lt;font face=&quot;Calibri&quot;&gt;Get port, pin&lt;br style=&quot;font-size: 11.29px;&quot;&gt;&amp;amp; pinDir&lt;/font&gt;" style="shape=parallelogram;perimeter=parallelogramPerimeter;whiteSpace=wrap;html=1;fixedSize=1;fontSize=11.29;fillColor=#d5e8d4;strokeColor=#82b366;size=0;" parent="WIyWlLk6GJQsqaUBKTNV-1" vertex="1">
          <mxGeometry x="50" y="139" width="110" height="40" as="geometry" />
        </mxCell>
        <mxCell id="9w9tnTH3Nwo0CElRM9sm-32" value="" style="edgeStyle=orthogonalEdgeStyle;rounded=0;orthogonalLoop=1;jettySize=auto;html=1;" parent="WIyWlLk6GJQsqaUBKTNV-1" source="9w9tnTH3Nwo0CElRM9sm-33" target="9w9tnTH3Nwo0CElRM9sm-31" edge="1">
          <mxGeometry relative="1" as="geometry" />
        </mxCell>
        <mxCell id="9w9tnTH3Nwo0CElRM9sm-33" value="&lt;font face=&quot;Calibri&quot; style=&quot;font-size: 11.29px;&quot;&gt;Start&lt;/font&gt;" style="html=1;dashed=0;whiteSpace=wrap;shape=mxgraph.dfd.start;fillColor=#dae8fc;strokeColor=#6c8ebf;" parent="WIyWlLk6GJQsqaUBKTNV-1" vertex="1">
          <mxGeometry x="65" y="80" width="80" height="30" as="geometry" />
        </mxCell>
        <mxCell id="9w9tnTH3Nwo0CElRM9sm-34" value="Pass" style="edgeStyle=orthogonalEdgeStyle;rounded=0;orthogonalLoop=1;jettySize=auto;html=1;entryX=0.5;entryY=0;entryDx=0;entryDy=0;" parent="WIyWlLk6GJQsqaUBKTNV-1" source="9w9tnTH3Nwo0CElRM9sm-36" target="9w9tnTH3Nwo0CElRM9sm-25" edge="1">
          <mxGeometry relative="1" as="geometry">
            <mxPoint x="105" y="288" as="targetPoint" />
          </mxGeometry>
        </mxCell>
        <mxCell id="9w9tnTH3Nwo0CElRM9sm-35" value="Fail" style="edgeStyle=orthogonalEdgeStyle;rounded=1;orthogonalLoop=1;jettySize=auto;html=1;" parent="WIyWlLk6GJQsqaUBKTNV-1" source="9w9tnTH3Nwo0CElRM9sm-36" target="9w9tnTH3Nwo0CElRM9sm-37" edge="1">
          <mxGeometry relative="1" as="geometry">
            <Array as="points">
              <mxPoint x="258" y="230" />
            </Array>
          </mxGeometry>
        </mxCell>
        <mxCell id="9w9tnTH3Nwo0CElRM9sm-36" value="&lt;font style=&quot;font-size: 11.29px;&quot;&gt;Port &amp;amp; Pin Check&lt;/font&gt;" style="shape=process;whiteSpace=wrap;html=1;backgroundOutline=1;fontSize=11.29;fillColor=#ffe6cc;strokeColor=#d79b00;fontFamily=Calibri;" parent="WIyWlLk6GJQsqaUBKTNV-1" vertex="1">
          <mxGeometry x="47" y="207" width="116" height="46" as="geometry" />
        </mxCell>
        <mxCell id="9w9tnTH3Nwo0CElRM9sm-37" value="&lt;font style=&quot;font-size: 11.29px;&quot;&gt;&lt;font face=&quot;Calibri&quot;&gt;return&lt;br&gt;GPIO_ERROR&lt;/font&gt;&lt;br&gt;&lt;/font&gt;" style="html=1;dashed=0;whiteSpace=wrap;shape=mxgraph.dfd.start;fillColor=#f8cecc;strokeColor=#b85450;" parent="WIyWlLk6GJQsqaUBKTNV-1" vertex="1">
          <mxGeometry x="215" y="259" width="83.5" height="30" as="geometry" />
        </mxCell>
        <mxCell id="9w9tnTH3Nwo0CElRM9sm-38" value="No" style="edgeStyle=orthogonalEdgeStyle;rounded=1;orthogonalLoop=1;jettySize=auto;html=1;entryX=0.5;entryY=0.5;entryDx=0;entryDy=15;entryPerimeter=0;exitX=1;exitY=0.5;exitDx=0;exitDy=0;" parent="WIyWlLk6GJQsqaUBKTNV-1" source="9w9tnTH3Nwo0CElRM9sm-25" target="9w9tnTH3Nwo0CElRM9sm-37" edge="1">
          <mxGeometry relative="1" as="geometry">
            <mxPoint x="169" y="328" as="sourcePoint" />
          </mxGeometry>
        </mxCell>
        <mxCell id="9w9tnTH3Nwo0CElRM9sm-42" value="&lt;font style=&quot;font-size: 11.29px;&quot;&gt;&lt;font face=&quot;Calibri&quot;&gt;return&lt;br&gt;GPIO_OK&lt;/font&gt;&lt;br&gt;&lt;/font&gt;" style="html=1;dashed=0;whiteSpace=wrap;shape=mxgraph.dfd.start;fillColor=#d5e8d4;strokeColor=#82b366;" parent="WIyWlLk6GJQsqaUBKTNV-1" vertex="1">
          <mxGeometry x="64.88" y="441" width="80" height="30" as="geometry" />
        </mxCell>
        <mxCell id="9w9tnTH3Nwo0CElRM9sm-45" style="edgeStyle=orthogonalEdgeStyle;rounded=0;orthogonalLoop=1;jettySize=auto;html=1;exitX=0.5;exitY=1;exitDx=0;exitDy=0;" parent="WIyWlLk6GJQsqaUBKTNV-1" source="9w9tnTH3Nwo0CElRM9sm-46" target="9w9tnTH3Nwo0CElRM9sm-60" edge="1">
          <mxGeometry relative="1" as="geometry">
            <mxPoint x="908" y="-868" as="targetPoint" />
          </mxGeometry>
        </mxCell>
        <mxCell id="9w9tnTH3Nwo0CElRM9sm-46" value="&lt;font face=&quot;Calibri&quot;&gt;get (str_pin_cfg*)&lt;/font&gt;" style="shape=parallelogram;perimeter=parallelogramPerimeter;whiteSpace=wrap;html=1;fixedSize=1;fontSize=11.29;fillColor=#d5e8d4;strokeColor=#82b366;size=0;" parent="WIyWlLk6GJQsqaUBKTNV-1" vertex="1">
          <mxGeometry x="980" y="-1000" width="110" height="40" as="geometry" />
        </mxCell>
        <mxCell id="9w9tnTH3Nwo0CElRM9sm-47" value="" style="edgeStyle=orthogonalEdgeStyle;rounded=0;orthogonalLoop=1;jettySize=auto;html=1;" parent="WIyWlLk6GJQsqaUBKTNV-1" source="9w9tnTH3Nwo0CElRM9sm-48" target="9w9tnTH3Nwo0CElRM9sm-46" edge="1">
          <mxGeometry relative="1" as="geometry" />
        </mxCell>
        <mxCell id="9w9tnTH3Nwo0CElRM9sm-48" value="&lt;font face=&quot;Calibri&quot; style=&quot;font-size: 11.29px;&quot;&gt;Start&lt;/font&gt;" style="html=1;dashed=0;whiteSpace=wrap;shape=mxgraph.dfd.start;fillColor=#dae8fc;strokeColor=#6c8ebf;" parent="WIyWlLk6GJQsqaUBKTNV-1" vertex="1">
          <mxGeometry x="868" y="-995" width="80" height="30" as="geometry" />
        </mxCell>
        <mxCell id="9w9tnTH3Nwo0CElRM9sm-162" value="No" style="edgeStyle=orthogonalEdgeStyle;rounded=0;orthogonalLoop=1;jettySize=auto;html=1;exitX=0;exitY=0.5;exitDx=0;exitDy=0;entryX=0.5;entryY=0;entryDx=0;entryDy=0;" parent="WIyWlLk6GJQsqaUBKTNV-1" source="9w9tnTH3Nwo0CElRM9sm-60" target="9w9tnTH3Nwo0CElRM9sm-64" edge="1">
          <mxGeometry relative="1" as="geometry" />
        </mxCell>
        <mxCell id="9w9tnTH3Nwo0CElRM9sm-163" value="Yes" style="edgeStyle=orthogonalEdgeStyle;rounded=0;orthogonalLoop=1;jettySize=auto;html=1;exitX=1;exitY=0.5;exitDx=0;exitDy=0;entryX=0.5;entryY=0.5;entryDx=0;entryDy=-15;entryPerimeter=0;" parent="WIyWlLk6GJQsqaUBKTNV-1" source="9w9tnTH3Nwo0CElRM9sm-60" target="9w9tnTH3Nwo0CElRM9sm-65" edge="1">
          <mxGeometry relative="1" as="geometry" />
        </mxCell>
        <mxCell id="9w9tnTH3Nwo0CElRM9sm-60" value="&lt;font face=&quot;Calibri&quot;&gt;struct ptr ==&amp;nbsp;&lt;br style=&quot;font-size: 11.29px;&quot;&gt;NULL?&lt;br&gt;&lt;/font&gt;" style="rhombus;whiteSpace=wrap;html=1;fontSize=11.29;fillColor=#fff2cc;strokeColor=#d6b656;" parent="WIyWlLk6GJQsqaUBKTNV-1" vertex="1">
          <mxGeometry x="995" y="-936" width="80" height="80" as="geometry" />
        </mxCell>
        <mxCell id="9w9tnTH3Nwo0CElRM9sm-143" value="" style="edgeStyle=orthogonalEdgeStyle;rounded=0;orthogonalLoop=1;jettySize=auto;html=1;" parent="WIyWlLk6GJQsqaUBKTNV-1" source="9w9tnTH3Nwo0CElRM9sm-61" target="9w9tnTH3Nwo0CElRM9sm-94" edge="1">
          <mxGeometry relative="1" as="geometry" />
        </mxCell>
        <mxCell id="9w9tnTH3Nwo0CElRM9sm-61" value="&lt;font style=&quot;font-size: 11.29px;&quot; face=&quot;Calibri&quot;&gt;Enable the port clock&lt;/font&gt;" style="rounded=0;whiteSpace=wrap;html=1;fontSize=11.29;fillColor=#d5e8d4;strokeColor=#82b366;" parent="WIyWlLk6GJQsqaUBKTNV-1" vertex="1">
          <mxGeometry x="853" y="-786" width="109.75" height="44" as="geometry" />
        </mxCell>
        <mxCell id="9w9tnTH3Nwo0CElRM9sm-161" value="Pass" style="edgeStyle=orthogonalEdgeStyle;rounded=0;orthogonalLoop=1;jettySize=auto;html=1;exitX=0.5;exitY=1;exitDx=0;exitDy=0;" parent="WIyWlLk6GJQsqaUBKTNV-1" source="9w9tnTH3Nwo0CElRM9sm-64" target="9w9tnTH3Nwo0CElRM9sm-61" edge="1">
          <mxGeometry relative="1" as="geometry" />
        </mxCell>
        <mxCell id="9w9tnTH3Nwo0CElRM9sm-164" value="Fail" style="edgeStyle=orthogonalEdgeStyle;rounded=0;orthogonalLoop=1;jettySize=auto;html=1;exitX=1;exitY=0.5;exitDx=0;exitDy=0;entryX=0;entryY=0.5;entryDx=0;entryDy=0;entryPerimeter=0;" parent="WIyWlLk6GJQsqaUBKTNV-1" source="9w9tnTH3Nwo0CElRM9sm-64" target="9w9tnTH3Nwo0CElRM9sm-65" edge="1">
          <mxGeometry relative="1" as="geometry">
            <mxPoint x="1096.9411764705883" y="-841.2352941176471" as="targetPoint" />
          </mxGeometry>
        </mxCell>
        <mxCell id="9w9tnTH3Nwo0CElRM9sm-64" value="&lt;font style=&quot;font-size: 11.29px;&quot;&gt;Port &amp;amp; Pin Check&lt;/font&gt;" style="shape=process;whiteSpace=wrap;html=1;backgroundOutline=1;fontSize=11.29;fillColor=#ffe6cc;strokeColor=#d79b00;fontFamily=Calibri;" parent="WIyWlLk6GJQsqaUBKTNV-1" vertex="1">
          <mxGeometry x="850" y="-864" width="116" height="46" as="geometry" />
        </mxCell>
        <mxCell id="9w9tnTH3Nwo0CElRM9sm-65" value="&lt;font style=&quot;font-size: 11.29px;&quot;&gt;&lt;font face=&quot;Calibri&quot;&gt;return&lt;br&gt;GPIO_ERROR&lt;/font&gt;&lt;br&gt;&lt;/font&gt;" style="html=1;dashed=0;whiteSpace=wrap;shape=mxgraph.dfd.start;fillColor=#f8cecc;strokeColor=#b85450;" parent="WIyWlLk6GJQsqaUBKTNV-1" vertex="1">
          <mxGeometry x="1098" y="-856" width="83.5" height="30" as="geometry" />
        </mxCell>
        <mxCell id="9w9tnTH3Nwo0CElRM9sm-83" value="&lt;font style=&quot;font-size: 11.29px;&quot;&gt;&lt;font face=&quot;Calibri&quot;&gt;return&lt;br&gt;GPIO_ERROR&lt;/font&gt;&lt;br&gt;&lt;/font&gt;" style="html=1;dashed=0;whiteSpace=wrap;shape=mxgraph.dfd.start;fillColor=#f8cecc;strokeColor=#b85450;" parent="WIyWlLk6GJQsqaUBKTNV-1" vertex="1">
          <mxGeometry x="1108" y="-120" width="83.5" height="30" as="geometry" />
        </mxCell>
        <mxCell id="9w9tnTH3Nwo0CElRM9sm-84" value="No" style="edgeStyle=orthogonalEdgeStyle;rounded=0;orthogonalLoop=1;jettySize=auto;html=1;exitX=0.5;exitY=1;exitDx=0;exitDy=0;entryX=0.5;entryY=0;entryDx=0;entryDy=0;" parent="WIyWlLk6GJQsqaUBKTNV-1" source="9w9tnTH3Nwo0CElRM9sm-86" target="9w9tnTH3Nwo0CElRM9sm-90" edge="1">
          <mxGeometry x="-0.3" y="13" relative="1" as="geometry">
            <mxPoint as="offset" />
          </mxGeometry>
        </mxCell>
        <mxCell id="9w9tnTH3Nwo0CElRM9sm-85" value="Yes" style="edgeStyle=orthogonalEdgeStyle;rounded=0;orthogonalLoop=1;jettySize=auto;html=1;entryX=0;entryY=0.5;entryDx=0;entryDy=0;" parent="WIyWlLk6GJQsqaUBKTNV-1" source="9w9tnTH3Nwo0CElRM9sm-86" target="9w9tnTH3Nwo0CElRM9sm-107" edge="1">
          <mxGeometry relative="1" as="geometry">
            <mxPoint x="1002.6999999999998" y="-573" as="targetPoint" />
          </mxGeometry>
        </mxCell>
        <mxCell id="9w9tnTH3Nwo0CElRM9sm-86" value="&lt;font style=&quot;font-size: 11.29px;&quot; face=&quot;Calibri&quot;&gt;OUTPUT&lt;/font&gt;" style="rhombus;whiteSpace=wrap;html=1;fontSize=11.29;fillColor=#fff2cc;strokeColor=#d6b656;" parent="WIyWlLk6GJQsqaUBKTNV-1" vertex="1">
          <mxGeometry x="868" y="-613" width="80" height="80" as="geometry" />
        </mxCell>
        <mxCell id="9w9tnTH3Nwo0CElRM9sm-88" value="No" style="edgeStyle=orthogonalEdgeStyle;rounded=0;orthogonalLoop=1;jettySize=auto;html=1;entryX=0.5;entryY=0;entryDx=0;entryDy=0;" parent="WIyWlLk6GJQsqaUBKTNV-1" source="9w9tnTH3Nwo0CElRM9sm-90" target="9w9tnTH3Nwo0CElRM9sm-99" edge="1">
          <mxGeometry x="0.2142" y="13" relative="1" as="geometry">
            <mxPoint x="908" y="-396" as="targetPoint" />
            <mxPoint as="offset" />
          </mxGeometry>
        </mxCell>
        <mxCell id="9w9tnTH3Nwo0CElRM9sm-90" value="&lt;font style=&quot;font-size: 11.29px;&quot;&gt;&lt;font style=&quot;font-size: 11.29px;&quot; face=&quot;Calibri&quot;&gt;INPUT&lt;br&gt;&lt;/font&gt;ANALOG&lt;/font&gt;" style="rhombus;whiteSpace=wrap;html=1;fontSize=11.29;fillColor=#fff2cc;strokeColor=#d6b656;" parent="WIyWlLk6GJQsqaUBKTNV-1" vertex="1">
          <mxGeometry x="868" y="-513" width="80" height="80" as="geometry" />
        </mxCell>
        <mxCell id="9w9tnTH3Nwo0CElRM9sm-92" value="No" style="edgeStyle=orthogonalEdgeStyle;rounded=0;orthogonalLoop=1;jettySize=auto;html=1;exitX=0.5;exitY=1;exitDx=0;exitDy=0;entryX=0.5;entryY=0;entryDx=0;entryDy=0;" parent="WIyWlLk6GJQsqaUBKTNV-1" source="9w9tnTH3Nwo0CElRM9sm-94" target="9w9tnTH3Nwo0CElRM9sm-86" edge="1">
          <mxGeometry x="-0.2593" y="12" relative="1" as="geometry">
            <mxPoint y="1" as="offset" />
          </mxGeometry>
        </mxCell>
        <mxCell id="9w9tnTH3Nwo0CElRM9sm-103" value="Yes" style="edgeStyle=orthogonalEdgeStyle;rounded=0;orthogonalLoop=1;jettySize=auto;html=1;" parent="WIyWlLk6GJQsqaUBKTNV-1" source="9w9tnTH3Nwo0CElRM9sm-94" target="9w9tnTH3Nwo0CElRM9sm-102" edge="1">
          <mxGeometry relative="1" as="geometry" />
        </mxCell>
        <mxCell id="9w9tnTH3Nwo0CElRM9sm-94" value="&lt;font style=&quot;font-size: 11.29px;&quot; data-font-src=&quot;https://fonts.googleapis.com/css?family=calibri&quot; face=&quot;calibri&quot;&gt;INPUT&lt;br&gt;FLOATING&lt;/font&gt;" style="rhombus;whiteSpace=wrap;html=1;fontSize=11.29;fillColor=#fff2cc;strokeColor=#d6b656;" parent="WIyWlLk6GJQsqaUBKTNV-1" vertex="1">
          <mxGeometry x="868" y="-716" width="80" height="80" as="geometry" />
        </mxCell>
        <mxCell id="9w9tnTH3Nwo0CElRM9sm-95" value="No" style="edgeStyle=orthogonalEdgeStyle;rounded=0;orthogonalLoop=1;jettySize=auto;html=1;exitX=0.5;exitY=1;exitDx=0;exitDy=0;entryX=0.5;entryY=0;entryDx=0;entryDy=0;" parent="WIyWlLk6GJQsqaUBKTNV-1" source="9w9tnTH3Nwo0CElRM9sm-96" target="9w9tnTH3Nwo0CElRM9sm-97" edge="1">
          <mxGeometry x="-0.2" y="11" relative="1" as="geometry">
            <mxPoint y="-1" as="offset" />
          </mxGeometry>
        </mxCell>
        <mxCell id="9w9tnTH3Nwo0CElRM9sm-96" value="&lt;font style=&quot;font-size: 11.29px;&quot; face=&quot;Calibri&quot;&gt;INPUT&lt;br&gt;PULL&amp;nbsp;&lt;br&gt;DOWN&lt;br&gt;&lt;/font&gt;" style="rhombus;whiteSpace=wrap;html=1;fontSize=11.29;fillColor=#fff2cc;strokeColor=#d6b656;" parent="WIyWlLk6GJQsqaUBKTNV-1" vertex="1">
          <mxGeometry x="868" y="-312" width="80" height="80" as="geometry" />
        </mxCell>
        <mxCell id="9w9tnTH3Nwo0CElRM9sm-97" value="&lt;font style=&quot;font-size: 11.29px;&quot;&gt;&lt;font style=&quot;font-size: 11.29px;&quot; face=&quot;Calibri&quot;&gt;OUTPUT&lt;br&gt;&lt;/font&gt;&lt;font face=&quot;calibri&quot;&gt;OPEN &lt;br&gt;DRAIN&lt;/font&gt;&lt;br&gt;&lt;/font&gt;" style="rhombus;whiteSpace=wrap;html=1;fontSize=11.29;fillColor=#fff2cc;strokeColor=#d6b656;" parent="WIyWlLk6GJQsqaUBKTNV-1" vertex="1">
          <mxGeometry x="868" y="-207" width="80" height="80" as="geometry" />
        </mxCell>
        <mxCell id="9w9tnTH3Nwo0CElRM9sm-98" value="Yes" style="edgeStyle=orthogonalEdgeStyle;rounded=0;orthogonalLoop=1;jettySize=auto;html=1;exitX=0.5;exitY=1;exitDx=0;exitDy=0;entryX=0.5;entryY=0;entryDx=0;entryDy=0;" parent="WIyWlLk6GJQsqaUBKTNV-1" source="9w9tnTH3Nwo0CElRM9sm-99" target="9w9tnTH3Nwo0CElRM9sm-96" edge="1">
          <mxGeometry x="-0.0909" y="16" relative="1" as="geometry">
            <mxPoint y="-1" as="offset" />
          </mxGeometry>
        </mxCell>
        <mxCell id="9w9tnTH3Nwo0CElRM9sm-99" value="&lt;font style=&quot;font-size: 11.29px;&quot; data-font-src=&quot;https://fonts.googleapis.com/css?family=calibri&quot; face=&quot;calibri&quot;&gt;INPUT&lt;br&gt;PULL-UP&lt;/font&gt;" style="rhombus;whiteSpace=wrap;html=1;fontSize=11.29;fillColor=#fff2cc;strokeColor=#d6b656;" parent="WIyWlLk6GJQsqaUBKTNV-1" vertex="1">
          <mxGeometry x="868" y="-414" width="80" height="80" as="geometry" />
        </mxCell>
        <mxCell id="9w9tnTH3Nwo0CElRM9sm-146" style="edgeStyle=orthogonalEdgeStyle;rounded=0;orthogonalLoop=1;jettySize=auto;html=1;exitX=1;exitY=0.5;exitDx=0;exitDy=0;entryX=0.5;entryY=0;entryDx=0;entryDy=0;" parent="WIyWlLk6GJQsqaUBKTNV-1" source="9w9tnTH3Nwo0CElRM9sm-101" target="9w9tnTH3Nwo0CElRM9sm-144" edge="1">
          <mxGeometry relative="1" as="geometry" />
        </mxCell>
        <mxCell id="9w9tnTH3Nwo0CElRM9sm-101" value="&lt;font style=&quot;font-size: 11.29px;&quot; face=&quot;Calibri&quot;&gt;configure the pin as&amp;nbsp;&lt;br&gt;an input pin&lt;br&gt;&lt;/font&gt;" style="rounded=0;whiteSpace=wrap;html=1;fontSize=11.29;fillColor=#d5e8d4;strokeColor=#82b366;" parent="WIyWlLk6GJQsqaUBKTNV-1" vertex="1">
          <mxGeometry x="1167" y="-697.5" width="109.75" height="44" as="geometry" />
        </mxCell>
        <mxCell id="9w9tnTH3Nwo0CElRM9sm-104" value="" style="edgeStyle=orthogonalEdgeStyle;rounded=0;orthogonalLoop=1;jettySize=auto;html=1;" parent="WIyWlLk6GJQsqaUBKTNV-1" source="9w9tnTH3Nwo0CElRM9sm-102" target="9w9tnTH3Nwo0CElRM9sm-101" edge="1">
          <mxGeometry relative="1" as="geometry" />
        </mxCell>
        <mxCell id="9w9tnTH3Nwo0CElRM9sm-102" value="&lt;div style=&quot;text-align: left;&quot;&gt;&lt;span style=&quot;font-size: 11.29px; font-family: Calibri; background-color: initial;&quot;&gt;-Enable digital function for pin&lt;/span&gt;&lt;/div&gt;&lt;font style=&quot;font-size: 11.29px;&quot; face=&quot;Calibri&quot;&gt;&lt;div style=&quot;text-align: left;&quot;&gt;&lt;span style=&quot;font-size: 11.29px; background-color: initial;&quot;&gt;-Disable Analog Function&lt;/span&gt;&lt;/div&gt;&lt;div style=&quot;text-align: left;&quot;&gt;&lt;span style=&quot;font-size: 11.29px; background-color: initial;&quot;&gt;-Disable Alternate function&lt;/span&gt;&lt;/div&gt;&lt;/font&gt;" style="rounded=0;whiteSpace=wrap;html=1;fontSize=11.29;fillColor=#d5e8d4;strokeColor=#82b366;" parent="WIyWlLk6GJQsqaUBKTNV-1" vertex="1">
          <mxGeometry x="985.75" y="-702.5" width="147.25" height="53" as="geometry" />
        </mxCell>
        <mxCell id="9w9tnTH3Nwo0CElRM9sm-252" style="edgeStyle=orthogonalEdgeStyle;rounded=0;orthogonalLoop=1;jettySize=auto;html=1;exitX=1;exitY=0.5;exitDx=0;exitDy=0;" parent="WIyWlLk6GJQsqaUBKTNV-1" source="9w9tnTH3Nwo0CElRM9sm-105" edge="1">
          <mxGeometry relative="1" as="geometry">
            <mxPoint x="1319.294117647059" y="-573" as="targetPoint" />
          </mxGeometry>
        </mxCell>
        <mxCell id="9w9tnTH3Nwo0CElRM9sm-105" value="&lt;font style=&quot;font-size: 11.29px;&quot; face=&quot;Calibri&quot;&gt;configure the pin as&amp;nbsp;&lt;br&gt;an output pin&lt;br&gt;&lt;/font&gt;" style="rounded=0;whiteSpace=wrap;html=1;fontSize=11.29;fillColor=#d5e8d4;strokeColor=#82b366;" parent="WIyWlLk6GJQsqaUBKTNV-1" vertex="1">
          <mxGeometry x="1170.25" y="-594.5" width="109.75" height="44" as="geometry" />
        </mxCell>
        <mxCell id="9w9tnTH3Nwo0CElRM9sm-106" value="" style="edgeStyle=orthogonalEdgeStyle;rounded=0;orthogonalLoop=1;jettySize=auto;html=1;" parent="WIyWlLk6GJQsqaUBKTNV-1" source="9w9tnTH3Nwo0CElRM9sm-107" target="9w9tnTH3Nwo0CElRM9sm-105" edge="1">
          <mxGeometry relative="1" as="geometry" />
        </mxCell>
        <mxCell id="9w9tnTH3Nwo0CElRM9sm-107" value="&lt;div style=&quot;text-align: left;&quot;&gt;&lt;span style=&quot;font-size: 11.29px; font-family: Calibri; background-color: initial;&quot;&gt;-Enable digital function for pin&lt;/span&gt;&lt;/div&gt;&lt;font style=&quot;font-size: 11.29px;&quot; face=&quot;Calibri&quot;&gt;&lt;div style=&quot;text-align: left;&quot;&gt;&lt;span style=&quot;font-size: 11.29px; background-color: initial;&quot;&gt;-Disable Analog Function&lt;/span&gt;&lt;/div&gt;&lt;div style=&quot;text-align: left;&quot;&gt;&lt;span style=&quot;font-size: 11.29px; background-color: initial;&quot;&gt;-Disable Alternate function&lt;/span&gt;&lt;/div&gt;&lt;/font&gt;" style="rounded=0;whiteSpace=wrap;html=1;fontSize=11.29;fillColor=#d5e8d4;strokeColor=#82b366;" parent="WIyWlLk6GJQsqaUBKTNV-1" vertex="1">
          <mxGeometry x="989" y="-599.5" width="147.25" height="53" as="geometry" />
        </mxCell>
        <mxCell id="9w9tnTH3Nwo0CElRM9sm-109" value="Yes" style="edgeStyle=orthogonalEdgeStyle;rounded=0;orthogonalLoop=1;jettySize=auto;html=1;entryX=0;entryY=0.5;entryDx=0;entryDy=0;exitX=1;exitY=0.5;exitDx=0;exitDy=0;" parent="WIyWlLk6GJQsqaUBKTNV-1" source="9w9tnTH3Nwo0CElRM9sm-90" target="9w9tnTH3Nwo0CElRM9sm-112" edge="1">
          <mxGeometry relative="1" as="geometry">
            <mxPoint x="958" y="-474" as="sourcePoint" />
            <mxPoint x="1012.6999999999998" y="-474" as="targetPoint" />
          </mxGeometry>
        </mxCell>
        <mxCell id="9w9tnTH3Nwo0CElRM9sm-145" value="" style="edgeStyle=orthogonalEdgeStyle;rounded=0;orthogonalLoop=1;jettySize=auto;html=1;" parent="WIyWlLk6GJQsqaUBKTNV-1" source="9w9tnTH3Nwo0CElRM9sm-110" target="9w9tnTH3Nwo0CElRM9sm-144" edge="1">
          <mxGeometry relative="1" as="geometry" />
        </mxCell>
        <mxCell id="9w9tnTH3Nwo0CElRM9sm-110" value="&lt;font style=&quot;font-size: 11.29px;&quot; face=&quot;Calibri&quot;&gt;configure the pin as&amp;nbsp;&lt;br&gt;an&amp;nbsp;&lt;/font&gt;input&amp;nbsp;&lt;font style=&quot;font-size: 11.29px;&quot; face=&quot;Calibri&quot;&gt;pin&lt;br&gt;&lt;/font&gt;" style="rounded=0;whiteSpace=wrap;html=1;fontSize=11.29;fillColor=#d5e8d4;strokeColor=#82b366;" parent="WIyWlLk6GJQsqaUBKTNV-1" vertex="1">
          <mxGeometry x="1172.25" y="-494.5" width="109.75" height="44" as="geometry" />
        </mxCell>
        <mxCell id="9w9tnTH3Nwo0CElRM9sm-111" value="" style="edgeStyle=orthogonalEdgeStyle;rounded=0;orthogonalLoop=1;jettySize=auto;html=1;" parent="WIyWlLk6GJQsqaUBKTNV-1" source="9w9tnTH3Nwo0CElRM9sm-112" target="9w9tnTH3Nwo0CElRM9sm-110" edge="1">
          <mxGeometry relative="1" as="geometry" />
        </mxCell>
        <mxCell id="9w9tnTH3Nwo0CElRM9sm-112" value="&lt;div style=&quot;text-align: left;&quot;&gt;&lt;span style=&quot;font-size: 11.29px; font-family: Calibri; background-color: initial;&quot;&gt;-Disable digital function for pin&lt;/span&gt;&lt;/div&gt;&lt;font style=&quot;font-size: 11.29px;&quot; face=&quot;Calibri&quot;&gt;&lt;div style=&quot;text-align: left;&quot;&gt;&lt;span style=&quot;font-size: 11.29px; background-color: initial;&quot;&gt;-Enable Analog Function&lt;/span&gt;&lt;/div&gt;&lt;div style=&quot;text-align: left;&quot;&gt;&lt;span style=&quot;font-size: 11.29px; background-color: initial;&quot;&gt;-Disable Alternate function&lt;/span&gt;&lt;/div&gt;&lt;/font&gt;" style="rounded=0;whiteSpace=wrap;html=1;fontSize=11.29;fillColor=#d5e8d4;strokeColor=#82b366;" parent="WIyWlLk6GJQsqaUBKTNV-1" vertex="1">
          <mxGeometry x="991" y="-499.5" width="147.25" height="53" as="geometry" />
        </mxCell>
        <mxCell id="9w9tnTH3Nwo0CElRM9sm-113" value="Yes" style="edgeStyle=orthogonalEdgeStyle;rounded=0;orthogonalLoop=1;jettySize=auto;html=1;entryX=0;entryY=0.5;entryDx=0;entryDy=0;" parent="WIyWlLk6GJQsqaUBKTNV-1" target="9w9tnTH3Nwo0CElRM9sm-116" edge="1">
          <mxGeometry relative="1" as="geometry">
            <mxPoint x="946" y="-374.5" as="sourcePoint" />
            <mxPoint x="1000.6999999999998" y="-374.5" as="targetPoint" />
          </mxGeometry>
        </mxCell>
        <mxCell id="9w9tnTH3Nwo0CElRM9sm-251" style="edgeStyle=orthogonalEdgeStyle;rounded=0;orthogonalLoop=1;jettySize=auto;html=1;exitX=1;exitY=0.5;exitDx=0;exitDy=0;" parent="WIyWlLk6GJQsqaUBKTNV-1" source="9w9tnTH3Nwo0CElRM9sm-114" edge="1">
          <mxGeometry relative="1" as="geometry">
            <mxPoint x="1320.4705882352941" y="-374.17647058823513" as="targetPoint" />
          </mxGeometry>
        </mxCell>
        <mxCell id="9w9tnTH3Nwo0CElRM9sm-114" value="&lt;div style=&quot;text-align: left;&quot;&gt;&lt;span style=&quot;font-size: 11.29px; font-family: Calibri; background-color: initial;&quot;&gt;-Set pin pull up bit&amp;nbsp;&lt;/span&gt;&lt;/div&gt;&lt;font style=&quot;font-size: 11.29px;&quot; face=&quot;Calibri&quot;&gt;&lt;div style=&quot;text-align: left;&quot;&gt;&lt;span style=&quot;font-size: 11.29px; background-color: initial;&quot;&gt;-configure the pin as&amp;nbsp;&lt;/span&gt;&lt;/div&gt;&lt;div style=&quot;text-align: left;&quot;&gt;&lt;font style=&quot;background-color: initial; font-size: 11.29px;&quot; face=&quot;Calibri&quot;&gt;&amp;nbsp;an&amp;nbsp;&lt;/font&gt;&lt;span style=&quot;background-color: initial; font-family: Helvetica; font-size: 11px;&quot;&gt;input&amp;nbsp;&lt;/span&gt;&lt;font style=&quot;background-color: initial; font-size: 11.29px;&quot; face=&quot;Calibri&quot;&gt;pin&lt;/font&gt;&lt;/div&gt;&lt;/font&gt;" style="rounded=0;whiteSpace=wrap;html=1;fontSize=11.29;fillColor=#d5e8d4;strokeColor=#82b366;" parent="WIyWlLk6GJQsqaUBKTNV-1" vertex="1">
          <mxGeometry x="1169.25" y="-403" width="109.75" height="58" as="geometry" />
        </mxCell>
        <mxCell id="9w9tnTH3Nwo0CElRM9sm-115" value="" style="edgeStyle=orthogonalEdgeStyle;rounded=0;orthogonalLoop=1;jettySize=auto;html=1;" parent="WIyWlLk6GJQsqaUBKTNV-1" source="9w9tnTH3Nwo0CElRM9sm-116" target="9w9tnTH3Nwo0CElRM9sm-114" edge="1">
          <mxGeometry relative="1" as="geometry" />
        </mxCell>
        <mxCell id="9w9tnTH3Nwo0CElRM9sm-116" value="&lt;div style=&quot;text-align: left;&quot;&gt;&lt;span style=&quot;font-size: 11.29px; font-family: Calibri; background-color: initial;&quot;&gt;-Enable digital function for pin&lt;/span&gt;&lt;/div&gt;&lt;font style=&quot;font-size: 11.29px;&quot; face=&quot;Calibri&quot;&gt;&lt;div style=&quot;text-align: left;&quot;&gt;&lt;span style=&quot;font-size: 11.29px; background-color: initial;&quot;&gt;-Disable Analog Function&lt;/span&gt;&lt;/div&gt;&lt;div style=&quot;text-align: left;&quot;&gt;&lt;span style=&quot;font-size: 11.29px; background-color: initial;&quot;&gt;-Disable Alternate function&lt;/span&gt;&lt;/div&gt;&lt;/font&gt;" style="rounded=0;whiteSpace=wrap;html=1;fontSize=11.29;fillColor=#d5e8d4;strokeColor=#82b366;" parent="WIyWlLk6GJQsqaUBKTNV-1" vertex="1">
          <mxGeometry x="988" y="-401" width="147.25" height="53" as="geometry" />
        </mxCell>
        <mxCell id="9w9tnTH3Nwo0CElRM9sm-117" value="Yes" style="edgeStyle=orthogonalEdgeStyle;rounded=0;orthogonalLoop=1;jettySize=auto;html=1;entryX=0;entryY=0.5;entryDx=0;entryDy=0;" parent="WIyWlLk6GJQsqaUBKTNV-1" target="9w9tnTH3Nwo0CElRM9sm-120" edge="1">
          <mxGeometry relative="1" as="geometry">
            <mxPoint x="948" y="-273" as="sourcePoint" />
            <mxPoint x="1002.6999999999998" y="-273" as="targetPoint" />
          </mxGeometry>
        </mxCell>
        <mxCell id="9w9tnTH3Nwo0CElRM9sm-250" style="edgeStyle=orthogonalEdgeStyle;rounded=0;orthogonalLoop=1;jettySize=auto;html=1;exitX=1;exitY=0.5;exitDx=0;exitDy=0;" parent="WIyWlLk6GJQsqaUBKTNV-1" source="9w9tnTH3Nwo0CElRM9sm-118" edge="1">
          <mxGeometry relative="1" as="geometry">
            <mxPoint x="1318.1176470588234" y="-273" as="targetPoint" />
          </mxGeometry>
        </mxCell>
        <mxCell id="9w9tnTH3Nwo0CElRM9sm-118" value="&lt;div style=&quot;border-color: var(--border-color); text-align: left;&quot;&gt;&lt;font data-font-src=&quot;https://fonts.googleapis.com/css?family=calibri&quot; face=&quot;calibri&quot;&gt;-Set pin pull down bit&amp;nbsp;&lt;/font&gt;&lt;/div&gt;&lt;font data-font-src=&quot;https://fonts.googleapis.com/css?family=calibri&quot; face=&quot;calibri&quot; style=&quot;border-color: var(--border-color);&quot;&gt;&lt;div style=&quot;font-size: 11.29px; border-color: var(--border-color); text-align: left;&quot;&gt;&lt;span style=&quot;border-color: var(--border-color); font-size: 11.29px; background-color: initial;&quot;&gt;-configure the pin as&amp;nbsp;&lt;/span&gt;&lt;/div&gt;&lt;div style=&quot;border-color: var(--border-color); text-align: left;&quot;&gt;&lt;font style=&quot;font-size: 11.29px; border-color: var(--border-color); background-color: initial;&quot;&gt;&amp;nbsp;an&amp;nbsp;&lt;/font&gt;&lt;span style=&quot;border-color: var(--border-color); background-color: initial;&quot;&gt;&lt;font style=&quot;font-size: 11.29px;&quot;&gt;input&amp;nbsp;&lt;/font&gt;&lt;/span&gt;&lt;font style=&quot;font-size: 11.29px; border-color: var(--border-color); background-color: initial;&quot;&gt;pin&lt;/font&gt;&lt;/div&gt;&lt;/font&gt;" style="rounded=0;whiteSpace=wrap;html=1;fontSize=11.29;fillColor=#d5e8d4;strokeColor=#82b366;" parent="WIyWlLk6GJQsqaUBKTNV-1" vertex="1">
          <mxGeometry x="1171.25" y="-300" width="109.75" height="55" as="geometry" />
        </mxCell>
        <mxCell id="9w9tnTH3Nwo0CElRM9sm-119" value="" style="edgeStyle=orthogonalEdgeStyle;rounded=0;orthogonalLoop=1;jettySize=auto;html=1;" parent="WIyWlLk6GJQsqaUBKTNV-1" source="9w9tnTH3Nwo0CElRM9sm-120" target="9w9tnTH3Nwo0CElRM9sm-118" edge="1">
          <mxGeometry relative="1" as="geometry" />
        </mxCell>
        <mxCell id="9w9tnTH3Nwo0CElRM9sm-120" value="&lt;div style=&quot;text-align: left;&quot;&gt;&lt;span style=&quot;font-size: 11.29px; font-family: Calibri; background-color: initial;&quot;&gt;-Enable digital function for pin&lt;/span&gt;&lt;/div&gt;&lt;font style=&quot;font-size: 11.29px;&quot; face=&quot;Calibri&quot;&gt;&lt;div style=&quot;text-align: left;&quot;&gt;&lt;span style=&quot;font-size: 11.29px; background-color: initial;&quot;&gt;-Disable Analog Function&lt;/span&gt;&lt;/div&gt;&lt;div style=&quot;text-align: left;&quot;&gt;&lt;span style=&quot;font-size: 11.29px; background-color: initial;&quot;&gt;-Disable Alternate function&lt;/span&gt;&lt;/div&gt;&lt;/font&gt;" style="rounded=0;whiteSpace=wrap;html=1;fontSize=11.29;fillColor=#d5e8d4;strokeColor=#82b366;" parent="WIyWlLk6GJQsqaUBKTNV-1" vertex="1">
          <mxGeometry x="990" y="-299.5" width="147.25" height="53" as="geometry" />
        </mxCell>
        <mxCell id="9w9tnTH3Nwo0CElRM9sm-121" value="Yes" style="edgeStyle=orthogonalEdgeStyle;rounded=0;orthogonalLoop=1;jettySize=auto;html=1;entryX=0;entryY=0.5;entryDx=0;entryDy=0;" parent="WIyWlLk6GJQsqaUBKTNV-1" target="9w9tnTH3Nwo0CElRM9sm-124" edge="1">
          <mxGeometry relative="1" as="geometry">
            <mxPoint x="949" y="-167.5" as="sourcePoint" />
            <mxPoint x="1003.6999999999998" y="-167.5" as="targetPoint" />
          </mxGeometry>
        </mxCell>
        <mxCell id="9w9tnTH3Nwo0CElRM9sm-147" style="edgeStyle=orthogonalEdgeStyle;rounded=0;orthogonalLoop=1;jettySize=auto;html=1;exitX=1;exitY=0.5;exitDx=0;exitDy=0;entryX=0.5;entryY=1;entryDx=0;entryDy=0;" parent="WIyWlLk6GJQsqaUBKTNV-1" source="9w9tnTH3Nwo0CElRM9sm-122" target="9w9tnTH3Nwo0CElRM9sm-144" edge="1">
          <mxGeometry relative="1" as="geometry" />
        </mxCell>
        <mxCell id="9w9tnTH3Nwo0CElRM9sm-122" value="&lt;font style=&quot;font-size: 11.29px;&quot; face=&quot;Calibri&quot;&gt;configure the pin as&amp;nbsp;&lt;br&gt;an output pin&lt;br&gt;&lt;/font&gt;" style="rounded=0;whiteSpace=wrap;html=1;fontSize=11.29;fillColor=#d5e8d4;strokeColor=#82b366;" parent="WIyWlLk6GJQsqaUBKTNV-1" vertex="1">
          <mxGeometry x="1172.25" y="-189" width="109.75" height="44" as="geometry" />
        </mxCell>
        <mxCell id="9w9tnTH3Nwo0CElRM9sm-123" value="" style="edgeStyle=orthogonalEdgeStyle;rounded=0;orthogonalLoop=1;jettySize=auto;html=1;" parent="WIyWlLk6GJQsqaUBKTNV-1" source="9w9tnTH3Nwo0CElRM9sm-124" target="9w9tnTH3Nwo0CElRM9sm-122" edge="1">
          <mxGeometry relative="1" as="geometry" />
        </mxCell>
        <mxCell id="9w9tnTH3Nwo0CElRM9sm-124" value="&lt;div style=&quot;text-align: left;&quot;&gt;&lt;span style=&quot;font-size: 11.29px; font-family: Calibri; background-color: initial;&quot;&gt;-Enable digital function for pin&lt;/span&gt;&lt;/div&gt;&lt;font style=&quot;font-size: 11.29px;&quot; face=&quot;Calibri&quot;&gt;&lt;div style=&quot;text-align: left;&quot;&gt;&lt;span style=&quot;font-size: 11.29px; background-color: initial;&quot;&gt;-Disable Analog Function&lt;/span&gt;&lt;/div&gt;&lt;div style=&quot;text-align: left;&quot;&gt;&lt;span style=&quot;font-size: 11.29px; background-color: initial;&quot;&gt;-Disable Alternate function&lt;/span&gt;&lt;/div&gt;&lt;/font&gt;" style="rounded=0;whiteSpace=wrap;html=1;fontSize=11.29;fillColor=#d5e8d4;strokeColor=#82b366;" parent="WIyWlLk6GJQsqaUBKTNV-1" vertex="1">
          <mxGeometry x="991" y="-194" width="147.25" height="53" as="geometry" />
        </mxCell>
        <mxCell id="9w9tnTH3Nwo0CElRM9sm-132" value="No" style="edgeStyle=orthogonalEdgeStyle;rounded=0;orthogonalLoop=1;jettySize=auto;html=1;exitX=0.5;exitY=1;exitDx=0;exitDy=0;entryX=0.5;entryY=0;entryDx=0;entryDy=0;" parent="WIyWlLk6GJQsqaUBKTNV-1" source="9w9tnTH3Nwo0CElRM9sm-134" target="9w9tnTH3Nwo0CElRM9sm-136" edge="1">
          <mxGeometry relative="1" as="geometry" />
        </mxCell>
        <mxCell id="9w9tnTH3Nwo0CElRM9sm-253" value="Yes" style="edgeStyle=orthogonalEdgeStyle;rounded=0;orthogonalLoop=1;jettySize=auto;html=1;" parent="WIyWlLk6GJQsqaUBKTNV-1" source="9w9tnTH3Nwo0CElRM9sm-134" target="9w9tnTH3Nwo0CElRM9sm-152" edge="1">
          <mxGeometry relative="1" as="geometry" />
        </mxCell>
        <mxCell id="9w9tnTH3Nwo0CElRM9sm-134" value="&lt;font style=&quot;font-size: 11.29px;&quot; face=&quot;Calibri&quot;&gt;current ==&amp;nbsp;&lt;br&gt;2 mA?&lt;br&gt;&lt;/font&gt;" style="rhombus;whiteSpace=wrap;html=1;fontSize=11.29;fillColor=#fff2cc;strokeColor=#d6b656;" parent="WIyWlLk6GJQsqaUBKTNV-1" vertex="1">
          <mxGeometry x="1345" y="-513" width="80" height="80" as="geometry" />
        </mxCell>
        <mxCell id="9w9tnTH3Nwo0CElRM9sm-135" value="No" style="edgeStyle=orthogonalEdgeStyle;rounded=0;orthogonalLoop=1;jettySize=auto;html=1;" parent="WIyWlLk6GJQsqaUBKTNV-1" source="9w9tnTH3Nwo0CElRM9sm-136" edge="1">
          <mxGeometry relative="1" as="geometry">
            <mxPoint x="1385" y="-287" as="targetPoint" />
          </mxGeometry>
        </mxCell>
        <mxCell id="9w9tnTH3Nwo0CElRM9sm-254" value="Yes" style="edgeStyle=orthogonalEdgeStyle;rounded=0;orthogonalLoop=1;jettySize=auto;html=1;" parent="WIyWlLk6GJQsqaUBKTNV-1" source="9w9tnTH3Nwo0CElRM9sm-136" target="9w9tnTH3Nwo0CElRM9sm-153" edge="1">
          <mxGeometry relative="1" as="geometry" />
        </mxCell>
        <mxCell id="9w9tnTH3Nwo0CElRM9sm-136" value="current ==&amp;nbsp;&lt;br style=&quot;border-color: var(--border-color); font-family: Calibri; font-size: 11.29px;&quot;&gt;&lt;span style=&quot;font-family: Calibri; font-size: 11.29px;&quot;&gt;4 mA?&lt;/span&gt;" style="rhombus;whiteSpace=wrap;html=1;fontSize=11.29;fillColor=#fff2cc;strokeColor=#d6b656;" parent="WIyWlLk6GJQsqaUBKTNV-1" vertex="1">
          <mxGeometry x="1345" y="-396" width="80" height="80" as="geometry" />
        </mxCell>
        <mxCell id="9w9tnTH3Nwo0CElRM9sm-149" value="No" style="edgeStyle=orthogonalEdgeStyle;rounded=0;orthogonalLoop=1;jettySize=auto;html=1;exitX=0.5;exitY=1;exitDx=0;exitDy=0;entryX=1;entryY=0.5;entryDx=0;entryDy=0;entryPerimeter=0;" parent="WIyWlLk6GJQsqaUBKTNV-1" source="9w9tnTH3Nwo0CElRM9sm-140" target="9w9tnTH3Nwo0CElRM9sm-83" edge="1">
          <mxGeometry relative="1" as="geometry">
            <mxPoint x="1384.9999999999995" y="-236" as="sourcePoint" />
            <Array as="points">
              <mxPoint x="1385" y="-105" />
            </Array>
          </mxGeometry>
        </mxCell>
        <mxCell id="9w9tnTH3Nwo0CElRM9sm-255" value="Yes" style="edgeStyle=orthogonalEdgeStyle;rounded=0;orthogonalLoop=1;jettySize=auto;html=1;" parent="WIyWlLk6GJQsqaUBKTNV-1" source="9w9tnTH3Nwo0CElRM9sm-140" target="9w9tnTH3Nwo0CElRM9sm-154" edge="1">
          <mxGeometry relative="1" as="geometry" />
        </mxCell>
        <mxCell id="9w9tnTH3Nwo0CElRM9sm-140" value="current ==&amp;nbsp;&lt;br style=&quot;border-color: var(--border-color); font-family: Calibri; font-size: 11.29px;&quot;&gt;&lt;span style=&quot;font-family: Calibri; font-size: 11.29px;&quot;&gt;8 mA?&lt;/span&gt;" style="rhombus;whiteSpace=wrap;html=1;fontSize=11.29;fillColor=#fff2cc;strokeColor=#d6b656;" parent="WIyWlLk6GJQsqaUBKTNV-1" vertex="1">
          <mxGeometry x="1345" y="-286" width="80" height="80" as="geometry" />
        </mxCell>
        <mxCell id="9w9tnTH3Nwo0CElRM9sm-151" value="" style="edgeStyle=orthogonalEdgeStyle;rounded=0;orthogonalLoop=1;jettySize=auto;html=1;" parent="WIyWlLk6GJQsqaUBKTNV-1" source="9w9tnTH3Nwo0CElRM9sm-144" target="9w9tnTH3Nwo0CElRM9sm-134" edge="1">
          <mxGeometry relative="1" as="geometry" />
        </mxCell>
        <mxCell id="9w9tnTH3Nwo0CElRM9sm-144" value="" style="rhombus;whiteSpace=wrap;html=1;" parent="WIyWlLk6GJQsqaUBKTNV-1" vertex="1">
          <mxGeometry x="1307.5" y="-485.5" width="20.5" height="25" as="geometry" />
        </mxCell>
        <mxCell id="9w9tnTH3Nwo0CElRM9sm-158" style="edgeStyle=orthogonalEdgeStyle;rounded=0;orthogonalLoop=1;jettySize=auto;html=1;exitX=1;exitY=0.5;exitDx=0;exitDy=0;entryX=0.5;entryY=0;entryDx=0;entryDy=0;" parent="WIyWlLk6GJQsqaUBKTNV-1" source="9w9tnTH3Nwo0CElRM9sm-152" target="9w9tnTH3Nwo0CElRM9sm-156" edge="1">
          <mxGeometry relative="1" as="geometry" />
        </mxCell>
        <mxCell id="9w9tnTH3Nwo0CElRM9sm-152" value="&lt;font style=&quot;&quot; face=&quot;Calibri&quot;&gt;SetBit&lt;br&gt;&lt;span style=&quot;font-size: 11.29px;&quot;&gt;(GPIODR2R(port),&amp;nbsp; pin)&lt;/span&gt;&lt;br&gt;&lt;/font&gt;" style="rounded=0;whiteSpace=wrap;html=1;fontSize=11.29;fillColor=#d5e8d4;strokeColor=#82b366;" parent="WIyWlLk6GJQsqaUBKTNV-1" vertex="1">
          <mxGeometry x="1459.5" y="-495" width="109.75" height="44" as="geometry" />
        </mxCell>
        <mxCell id="9w9tnTH3Nwo0CElRM9sm-157" style="edgeStyle=orthogonalEdgeStyle;rounded=0;orthogonalLoop=1;jettySize=auto;html=1;exitX=1;exitY=0.5;exitDx=0;exitDy=0;entryX=0;entryY=0.5;entryDx=0;entryDy=0;" parent="WIyWlLk6GJQsqaUBKTNV-1" source="9w9tnTH3Nwo0CElRM9sm-153" target="9w9tnTH3Nwo0CElRM9sm-156" edge="1">
          <mxGeometry relative="1" as="geometry" />
        </mxCell>
        <mxCell id="9w9tnTH3Nwo0CElRM9sm-153" value="SetBit&lt;br style=&quot;border-color: var(--border-color); font-family: Calibri;&quot;&gt;&lt;span style=&quot;border-color: var(--border-color); font-family: Calibri; font-size: 11.29px;&quot;&gt;(GPIODR4R(port),&amp;nbsp; pin)&lt;/span&gt;&lt;font style=&quot;font-size: 11.29px;&quot; face=&quot;Calibri&quot;&gt;&lt;br&gt;&lt;/font&gt;" style="rounded=0;whiteSpace=wrap;html=1;fontSize=11.29;fillColor=#d5e8d4;strokeColor=#82b366;" parent="WIyWlLk6GJQsqaUBKTNV-1" vertex="1">
          <mxGeometry x="1459.5" y="-378" width="109.75" height="44" as="geometry" />
        </mxCell>
        <mxCell id="9w9tnTH3Nwo0CElRM9sm-159" style="edgeStyle=orthogonalEdgeStyle;rounded=0;orthogonalLoop=1;jettySize=auto;html=1;exitX=1;exitY=0.5;exitDx=0;exitDy=0;entryX=0.5;entryY=1;entryDx=0;entryDy=0;" parent="WIyWlLk6GJQsqaUBKTNV-1" source="9w9tnTH3Nwo0CElRM9sm-154" target="9w9tnTH3Nwo0CElRM9sm-156" edge="1">
          <mxGeometry relative="1" as="geometry" />
        </mxCell>
        <mxCell id="9w9tnTH3Nwo0CElRM9sm-154" value="SetBit&lt;br style=&quot;border-color: var(--border-color); font-family: Calibri;&quot;&gt;&lt;span style=&quot;border-color: var(--border-color); font-family: Calibri; font-size: 11.29px;&quot;&gt;(GPIODR8R(port),&amp;nbsp; pin)&lt;/span&gt;&lt;font style=&quot;font-size: 11.29px;&quot; face=&quot;Calibri&quot;&gt;&lt;br&gt;&lt;/font&gt;" style="rounded=0;whiteSpace=wrap;html=1;fontSize=11.29;fillColor=#d5e8d4;strokeColor=#82b366;" parent="WIyWlLk6GJQsqaUBKTNV-1" vertex="1">
          <mxGeometry x="1459.5" y="-268" width="109.75" height="44" as="geometry" />
        </mxCell>
        <mxCell id="9w9tnTH3Nwo0CElRM9sm-155" value="&lt;font style=&quot;font-size: 11.29px;&quot;&gt;&lt;font face=&quot;Calibri&quot;&gt;return&lt;br&gt;GPIO_OK&lt;/font&gt;&lt;br&gt;&lt;/font&gt;" style="html=1;dashed=0;whiteSpace=wrap;shape=mxgraph.dfd.start;fillColor=#d5e8d4;strokeColor=#82b366;" parent="WIyWlLk6GJQsqaUBKTNV-1" vertex="1">
          <mxGeometry x="1467.5" y="-175" width="80" height="30" as="geometry" />
        </mxCell>
        <mxCell id="9w9tnTH3Nwo0CElRM9sm-160" style="edgeStyle=orthogonalEdgeStyle;rounded=0;orthogonalLoop=1;jettySize=auto;html=1;exitX=1;exitY=0.5;exitDx=0;exitDy=0;entryX=1;entryY=0.5;entryDx=0;entryDy=0;entryPerimeter=0;" parent="WIyWlLk6GJQsqaUBKTNV-1" source="9w9tnTH3Nwo0CElRM9sm-156" target="9w9tnTH3Nwo0CElRM9sm-155" edge="1">
          <mxGeometry relative="1" as="geometry" />
        </mxCell>
        <mxCell id="9w9tnTH3Nwo0CElRM9sm-156" value="" style="rhombus;whiteSpace=wrap;html=1;" parent="WIyWlLk6GJQsqaUBKTNV-1" vertex="1">
          <mxGeometry x="1590" y="-368.5" width="20.5" height="25" as="geometry" />
        </mxCell>
        <mxCell id="9w9tnTH3Nwo0CElRM9sm-167" value="No" style="edgeStyle=orthogonalEdgeStyle;rounded=0;orthogonalLoop=1;jettySize=auto;html=1;" parent="WIyWlLk6GJQsqaUBKTNV-1" source="9w9tnTH3Nwo0CElRM9sm-165" target="PaLshwyQZhTTM3AdKfok-116" edge="1">
          <mxGeometry relative="1" as="geometry" />
        </mxCell>
        <mxCell id="9w9tnTH3Nwo0CElRM9sm-175" value="Yes" style="edgeStyle=orthogonalEdgeStyle;rounded=1;orthogonalLoop=1;jettySize=auto;html=1;exitX=1;exitY=0.5;exitDx=0;exitDy=0;entryX=0.5;entryY=0.5;entryDx=0;entryDy=-15;entryPerimeter=0;" parent="WIyWlLk6GJQsqaUBKTNV-1" source="9w9tnTH3Nwo0CElRM9sm-165" target="PaLshwyQZhTTM3AdKfok-124" edge="1">
          <mxGeometry relative="1" as="geometry" />
        </mxCell>
        <mxCell id="9w9tnTH3Nwo0CElRM9sm-165" value="&lt;font face=&quot;Calibri&quot;&gt;&amp;amp;Val ==&amp;nbsp;&lt;br style=&quot;font-size: 11.29px;&quot;&gt;NULL?&lt;br&gt;&lt;/font&gt;" style="rhombus;whiteSpace=wrap;html=1;fontSize=11.29;fillColor=#fff2cc;strokeColor=#d6b656;" parent="WIyWlLk6GJQsqaUBKTNV-1" vertex="1">
          <mxGeometry x="509.5" y="-361" width="80" height="80" as="geometry" />
        </mxCell>
        <mxCell id="9w9tnTH3Nwo0CElRM9sm-176" value="" style="edgeStyle=orthogonalEdgeStyle;rounded=0;orthogonalLoop=1;jettySize=auto;html=1;entryX=0.5;entryY=0.5;entryDx=0;entryDy=-15;entryPerimeter=0;" parent="WIyWlLk6GJQsqaUBKTNV-1" source="9w9tnTH3Nwo0CElRM9sm-177" target="9w9tnTH3Nwo0CElRM9sm-190" edge="1">
          <mxGeometry relative="1" as="geometry">
            <mxPoint x="482.82352941176464" y="378" as="targetPoint" />
          </mxGeometry>
        </mxCell>
        <mxCell id="9w9tnTH3Nwo0CElRM9sm-177" value="&lt;font style=&quot;font-size: 11.29px;&quot; face=&quot;Calibri&quot;&gt;CLR_BIT&lt;br&gt;(GPIOIM(port), pin)&lt;/font&gt;" style="rounded=0;whiteSpace=wrap;html=1;fontSize=11.29;fillColor=#d5e8d4;strokeColor=#82b366;" parent="WIyWlLk6GJQsqaUBKTNV-1" vertex="1">
          <mxGeometry x="427.87" y="304" width="109.75" height="44" as="geometry" />
        </mxCell>
        <mxCell id="9w9tnTH3Nwo0CElRM9sm-180" value="&lt;font style=&quot;font-size: 15px;&quot;&gt;&lt;b&gt;gpio_disableInt&lt;/b&gt;&lt;/font&gt;" style="rounded=0;whiteSpace=wrap;html=1;strokeColor=#FFFFFF;" parent="WIyWlLk6GJQsqaUBKTNV-1" vertex="1">
          <mxGeometry x="385" y="24" width="195.75" height="42" as="geometry" />
        </mxCell>
        <mxCell id="9w9tnTH3Nwo0CElRM9sm-181" style="edgeStyle=orthogonalEdgeStyle;rounded=0;orthogonalLoop=1;jettySize=auto;html=1;exitX=0.5;exitY=1;exitDx=0;exitDy=0;entryX=0.5;entryY=0;entryDx=0;entryDy=0;" parent="WIyWlLk6GJQsqaUBKTNV-1" source="9w9tnTH3Nwo0CElRM9sm-182" target="9w9tnTH3Nwo0CElRM9sm-187" edge="1">
          <mxGeometry relative="1" as="geometry" />
        </mxCell>
        <mxCell id="9w9tnTH3Nwo0CElRM9sm-182" value="&lt;font face=&quot;Calibri&quot;&gt;Get port, pin&lt;br style=&quot;font-size: 11.29px;&quot;&gt;&amp;amp; pinDir&lt;/font&gt;" style="shape=parallelogram;perimeter=parallelogramPerimeter;whiteSpace=wrap;html=1;fixedSize=1;fontSize=11.29;fillColor=#d5e8d4;strokeColor=#82b366;size=0;" parent="WIyWlLk6GJQsqaUBKTNV-1" vertex="1">
          <mxGeometry x="427.87" y="150" width="110" height="40" as="geometry" />
        </mxCell>
        <mxCell id="9w9tnTH3Nwo0CElRM9sm-183" value="" style="edgeStyle=orthogonalEdgeStyle;rounded=0;orthogonalLoop=1;jettySize=auto;html=1;" parent="WIyWlLk6GJQsqaUBKTNV-1" source="9w9tnTH3Nwo0CElRM9sm-184" target="9w9tnTH3Nwo0CElRM9sm-182" edge="1">
          <mxGeometry relative="1" as="geometry" />
        </mxCell>
        <mxCell id="9w9tnTH3Nwo0CElRM9sm-184" value="&lt;font face=&quot;Calibri&quot; style=&quot;font-size: 11.29px;&quot;&gt;Start&lt;/font&gt;" style="html=1;dashed=0;whiteSpace=wrap;shape=mxgraph.dfd.start;fillColor=#dae8fc;strokeColor=#6c8ebf;" parent="WIyWlLk6GJQsqaUBKTNV-1" vertex="1">
          <mxGeometry x="442.87" y="91" width="80" height="30" as="geometry" />
        </mxCell>
        <mxCell id="9w9tnTH3Nwo0CElRM9sm-185" value="Pass" style="edgeStyle=orthogonalEdgeStyle;rounded=0;orthogonalLoop=1;jettySize=auto;html=1;entryX=0.5;entryY=0;entryDx=0;entryDy=0;" parent="WIyWlLk6GJQsqaUBKTNV-1" source="9w9tnTH3Nwo0CElRM9sm-187" target="9w9tnTH3Nwo0CElRM9sm-177" edge="1">
          <mxGeometry relative="1" as="geometry">
            <mxPoint x="482.87" y="299" as="targetPoint" />
          </mxGeometry>
        </mxCell>
        <mxCell id="9w9tnTH3Nwo0CElRM9sm-186" value="Fail" style="edgeStyle=orthogonalEdgeStyle;rounded=1;orthogonalLoop=1;jettySize=auto;html=1;" parent="WIyWlLk6GJQsqaUBKTNV-1" source="9w9tnTH3Nwo0CElRM9sm-187" target="9w9tnTH3Nwo0CElRM9sm-188" edge="1">
          <mxGeometry relative="1" as="geometry">
            <Array as="points">
              <mxPoint x="635.87" y="241" />
            </Array>
          </mxGeometry>
        </mxCell>
        <mxCell id="9w9tnTH3Nwo0CElRM9sm-187" value="&lt;font style=&quot;font-size: 11.29px;&quot;&gt;Port &amp;amp; Pin Check&lt;/font&gt;" style="shape=process;whiteSpace=wrap;html=1;backgroundOutline=1;fontSize=11.29;fillColor=#ffe6cc;strokeColor=#d79b00;fontFamily=Calibri;" parent="WIyWlLk6GJQsqaUBKTNV-1" vertex="1">
          <mxGeometry x="424.87" y="218" width="116" height="46" as="geometry" />
        </mxCell>
        <mxCell id="9w9tnTH3Nwo0CElRM9sm-188" value="&lt;font style=&quot;font-size: 11.29px;&quot;&gt;&lt;font face=&quot;Calibri&quot;&gt;return&lt;br&gt;GPIO_ERROR&lt;/font&gt;&lt;br&gt;&lt;/font&gt;" style="html=1;dashed=0;whiteSpace=wrap;shape=mxgraph.dfd.start;fillColor=#f8cecc;strokeColor=#b85450;" parent="WIyWlLk6GJQsqaUBKTNV-1" vertex="1">
          <mxGeometry x="592.87" y="270" width="83.5" height="30" as="geometry" />
        </mxCell>
        <mxCell id="9w9tnTH3Nwo0CElRM9sm-189" value="No" style="edgeStyle=orthogonalEdgeStyle;rounded=1;orthogonalLoop=1;jettySize=auto;html=1;entryX=0.5;entryY=0.5;entryDx=0;entryDy=15;entryPerimeter=0;exitX=1;exitY=0.5;exitDx=0;exitDy=0;" parent="WIyWlLk6GJQsqaUBKTNV-1" source="9w9tnTH3Nwo0CElRM9sm-177" target="9w9tnTH3Nwo0CElRM9sm-188" edge="1">
          <mxGeometry relative="1" as="geometry">
            <mxPoint x="546.87" y="339" as="sourcePoint" />
          </mxGeometry>
        </mxCell>
        <mxCell id="9w9tnTH3Nwo0CElRM9sm-190" value="&lt;font style=&quot;font-size: 11.29px;&quot;&gt;&lt;font face=&quot;Calibri&quot;&gt;return&lt;br&gt;GPIO_OK&lt;/font&gt;&lt;br&gt;&lt;/font&gt;" style="html=1;dashed=0;whiteSpace=wrap;shape=mxgraph.dfd.start;fillColor=#d5e8d4;strokeColor=#82b366;" parent="WIyWlLk6GJQsqaUBKTNV-1" vertex="1">
          <mxGeometry x="442.74" y="374.5" width="80" height="30" as="geometry" />
        </mxCell>
        <mxCell id="9w9tnTH3Nwo0CElRM9sm-191" value="" style="edgeStyle=orthogonalEdgeStyle;rounded=0;orthogonalLoop=1;jettySize=auto;html=1;" parent="WIyWlLk6GJQsqaUBKTNV-1" source="9w9tnTH3Nwo0CElRM9sm-192" target="9w9tnTH3Nwo0CElRM9sm-194" edge="1">
          <mxGeometry relative="1" as="geometry" />
        </mxCell>
        <mxCell id="9w9tnTH3Nwo0CElRM9sm-192" value="&lt;font face=&quot;Calibri&quot;&gt;&lt;span style=&quot;font-size: 11.29px;&quot;&gt;Disable the pin interrupt&lt;/span&gt;&lt;/font&gt;" style="rounded=0;whiteSpace=wrap;html=1;fontSize=11.29;fillColor=#d5e8d4;strokeColor=#82b366;" parent="WIyWlLk6GJQsqaUBKTNV-1" vertex="1">
          <mxGeometry x="912.0500000000001" y="406.5" width="109.75" height="44" as="geometry" />
        </mxCell>
        <mxCell id="9w9tnTH3Nwo0CElRM9sm-260" value="" style="edgeStyle=orthogonalEdgeStyle;rounded=0;orthogonalLoop=1;jettySize=auto;html=1;" parent="WIyWlLk6GJQsqaUBKTNV-1" source="9w9tnTH3Nwo0CElRM9sm-194" target="9w9tnTH3Nwo0CElRM9sm-259" edge="1">
          <mxGeometry relative="1" as="geometry" />
        </mxCell>
        <mxCell id="9w9tnTH3Nwo0CElRM9sm-194" value="&lt;font face=&quot;Calibri&quot;&gt;Configure the interrupt sense (level/edge)&lt;/font&gt;" style="rounded=0;whiteSpace=wrap;html=1;fontSize=11.29;fillColor=#d5e8d4;strokeColor=#82b366;" parent="WIyWlLk6GJQsqaUBKTNV-1" vertex="1">
          <mxGeometry x="909.8000000000001" y="474.5" width="114.24" height="44" as="geometry" />
        </mxCell>
        <mxCell id="9w9tnTH3Nwo0CElRM9sm-195" value="&lt;b style=&quot;font-size: 14px;&quot;&gt;gpio_setIntSense&lt;/b&gt;" style="rounded=0;whiteSpace=wrap;html=1;strokeColor=#FFFFFF;" parent="WIyWlLk6GJQsqaUBKTNV-1" vertex="1">
          <mxGeometry x="1135.25" y="68" width="195.75" height="42" as="geometry" />
        </mxCell>
        <mxCell id="9w9tnTH3Nwo0CElRM9sm-196" style="edgeStyle=orthogonalEdgeStyle;rounded=0;orthogonalLoop=1;jettySize=auto;html=1;exitX=0.5;exitY=1;exitDx=0;exitDy=0;entryX=0.5;entryY=0;entryDx=0;entryDy=0;" parent="WIyWlLk6GJQsqaUBKTNV-1" source="9w9tnTH3Nwo0CElRM9sm-197" target="9w9tnTH3Nwo0CElRM9sm-202" edge="1">
          <mxGeometry relative="1" as="geometry" />
        </mxCell>
        <mxCell id="9w9tnTH3Nwo0CElRM9sm-197" value="&lt;font face=&quot;Calibri&quot;&gt;Get port, pin&lt;br style=&quot;font-size: 11.29px;&quot;&gt;&amp;amp; int_event&lt;/font&gt;" style="shape=parallelogram;perimeter=parallelogramPerimeter;whiteSpace=wrap;html=1;fixedSize=1;fontSize=11.29;fillColor=#d5e8d4;strokeColor=#82b366;size=0;" parent="WIyWlLk6GJQsqaUBKTNV-1" vertex="1">
          <mxGeometry x="911.91" y="150" width="110" height="40" as="geometry" />
        </mxCell>
        <mxCell id="9w9tnTH3Nwo0CElRM9sm-198" value="" style="edgeStyle=orthogonalEdgeStyle;rounded=0;orthogonalLoop=1;jettySize=auto;html=1;" parent="WIyWlLk6GJQsqaUBKTNV-1" source="9w9tnTH3Nwo0CElRM9sm-199" target="9w9tnTH3Nwo0CElRM9sm-197" edge="1">
          <mxGeometry relative="1" as="geometry" />
        </mxCell>
        <mxCell id="9w9tnTH3Nwo0CElRM9sm-199" value="&lt;font face=&quot;Calibri&quot; style=&quot;font-size: 11.29px;&quot;&gt;Start&lt;/font&gt;" style="html=1;dashed=0;whiteSpace=wrap;shape=mxgraph.dfd.start;fillColor=#dae8fc;strokeColor=#6c8ebf;" parent="WIyWlLk6GJQsqaUBKTNV-1" vertex="1">
          <mxGeometry x="926.91" y="91" width="80" height="30" as="geometry" />
        </mxCell>
        <mxCell id="9w9tnTH3Nwo0CElRM9sm-200" value="Pass" style="edgeStyle=orthogonalEdgeStyle;rounded=0;orthogonalLoop=1;jettySize=auto;html=1;" parent="WIyWlLk6GJQsqaUBKTNV-1" source="9w9tnTH3Nwo0CElRM9sm-202" edge="1">
          <mxGeometry relative="1" as="geometry">
            <mxPoint x="967.0400000000001" y="308.5" as="targetPoint" />
          </mxGeometry>
        </mxCell>
        <mxCell id="9w9tnTH3Nwo0CElRM9sm-201" value="Fail" style="edgeStyle=orthogonalEdgeStyle;rounded=1;orthogonalLoop=1;jettySize=auto;html=1;" parent="WIyWlLk6GJQsqaUBKTNV-1" source="9w9tnTH3Nwo0CElRM9sm-202" target="9w9tnTH3Nwo0CElRM9sm-203" edge="1">
          <mxGeometry relative="1" as="geometry">
            <Array as="points">
              <mxPoint x="1119.9099999999999" y="241" />
            </Array>
          </mxGeometry>
        </mxCell>
        <mxCell id="9w9tnTH3Nwo0CElRM9sm-202" value="&lt;font style=&quot;font-size: 11.29px;&quot;&gt;Port &amp;amp; Pin Check&lt;/font&gt;" style="shape=process;whiteSpace=wrap;html=1;backgroundOutline=1;fontSize=11.29;fillColor=#ffe6cc;strokeColor=#d79b00;fontFamily=Calibri;" parent="WIyWlLk6GJQsqaUBKTNV-1" vertex="1">
          <mxGeometry x="908.91" y="218" width="116" height="46" as="geometry" />
        </mxCell>
        <mxCell id="9w9tnTH3Nwo0CElRM9sm-203" value="&lt;font style=&quot;font-size: 11.29px;&quot;&gt;&lt;font face=&quot;Calibri&quot;&gt;return&lt;br&gt;GPIO_ERROR&lt;/font&gt;&lt;br&gt;&lt;/font&gt;" style="html=1;dashed=0;whiteSpace=wrap;shape=mxgraph.dfd.start;fillColor=#f8cecc;strokeColor=#b85450;" parent="WIyWlLk6GJQsqaUBKTNV-1" vertex="1">
          <mxGeometry x="1076.9099999999999" y="270" width="83.5" height="30" as="geometry" />
        </mxCell>
        <mxCell id="9w9tnTH3Nwo0CElRM9sm-204" value="No" style="edgeStyle=orthogonalEdgeStyle;rounded=1;orthogonalLoop=1;jettySize=auto;html=1;entryX=0.5;entryY=0.5;entryDx=0;entryDy=15;entryPerimeter=0;exitX=1;exitY=0.5;exitDx=0;exitDy=0;" parent="WIyWlLk6GJQsqaUBKTNV-1" source="9w9tnTH3Nwo0CElRM9sm-256" target="9w9tnTH3Nwo0CElRM9sm-203" edge="1">
          <mxGeometry relative="1" as="geometry">
            <mxPoint x="1030.9099999999999" y="339" as="sourcePoint" />
          </mxGeometry>
        </mxCell>
        <mxCell id="9w9tnTH3Nwo0CElRM9sm-205" value="&lt;font style=&quot;font-size: 11.29px;&quot;&gt;&lt;font face=&quot;Calibri&quot;&gt;return&lt;br&gt;GPIO_OK&lt;/font&gt;&lt;br&gt;&lt;/font&gt;" style="html=1;dashed=0;whiteSpace=wrap;shape=mxgraph.dfd.start;fillColor=#d5e8d4;strokeColor=#82b366;" parent="WIyWlLk6GJQsqaUBKTNV-1" vertex="1">
          <mxGeometry x="1465.35" y="622" width="80" height="30" as="geometry" />
        </mxCell>
        <mxCell id="9w9tnTH3Nwo0CElRM9sm-206" value="" style="edgeStyle=orthogonalEdgeStyle;rounded=0;orthogonalLoop=1;jettySize=auto;html=1;" parent="WIyWlLk6GJQsqaUBKTNV-1" target="9w9tnTH3Nwo0CElRM9sm-209" edge="1">
          <mxGeometry relative="1" as="geometry">
            <mxPoint x="381.7647058823529" y="839" as="sourcePoint" />
          </mxGeometry>
        </mxCell>
        <mxCell id="9w9tnTH3Nwo0CElRM9sm-208" value="" style="edgeStyle=orthogonalEdgeStyle;rounded=0;orthogonalLoop=1;jettySize=auto;html=1;" parent="WIyWlLk6GJQsqaUBKTNV-1" source="9w9tnTH3Nwo0CElRM9sm-209" target="9w9tnTH3Nwo0CElRM9sm-220" edge="1">
          <mxGeometry relative="1" as="geometry" />
        </mxCell>
        <mxCell id="9w9tnTH3Nwo0CElRM9sm-209" value="&lt;font face=&quot;Calibri&quot;&gt;arr_gpio_cbf[port][pin]&lt;br&gt;&amp;nbsp;=&amp;nbsp; cbf&lt;/font&gt;" style="rounded=0;whiteSpace=wrap;html=1;fontSize=11.29;fillColor=#d5e8d4;strokeColor=#82b366;" parent="WIyWlLk6GJQsqaUBKTNV-1" vertex="1">
          <mxGeometry x="322.62" y="870" width="117.25" height="44" as="geometry" />
        </mxCell>
        <mxCell id="9w9tnTH3Nwo0CElRM9sm-210" value="&lt;b&gt;&lt;font style=&quot;font-size: 14px;&quot;&gt;gpio_setIntCallback&lt;/font&gt;&lt;/b&gt;" style="rounded=0;whiteSpace=wrap;html=1;strokeColor=#FFFFFF;" parent="WIyWlLk6GJQsqaUBKTNV-1" vertex="1">
          <mxGeometry x="284" y="516" width="195.75" height="42" as="geometry" />
        </mxCell>
        <mxCell id="9w9tnTH3Nwo0CElRM9sm-220" value="&lt;font style=&quot;font-size: 11.29px;&quot;&gt;&lt;font face=&quot;Calibri&quot;&gt;return&lt;br&gt;GPIO_OK&lt;/font&gt;&lt;br&gt;&lt;/font&gt;" style="html=1;dashed=0;whiteSpace=wrap;shape=mxgraph.dfd.start;fillColor=#d5e8d4;strokeColor=#82b366;" parent="WIyWlLk6GJQsqaUBKTNV-1" vertex="1">
          <mxGeometry x="341.75" y="943" width="80" height="30" as="geometry" />
        </mxCell>
        <mxCell id="9w9tnTH3Nwo0CElRM9sm-231" value="" style="edgeStyle=orthogonalEdgeStyle;rounded=0;orthogonalLoop=1;jettySize=auto;html=1;" parent="WIyWlLk6GJQsqaUBKTNV-1" source="9w9tnTH3Nwo0CElRM9sm-232" target="9w9tnTH3Nwo0CElRM9sm-240" edge="1">
          <mxGeometry relative="1" as="geometry" />
        </mxCell>
        <mxCell id="9w9tnTH3Nwo0CElRM9sm-232" value="&lt;font face=&quot;Calibri&quot;&gt;Get port, pin&lt;br style=&quot;font-size: 11.29px;&quot;&gt;&amp;amp; cbf&lt;/font&gt;" style="shape=parallelogram;perimeter=parallelogramPerimeter;whiteSpace=wrap;html=1;fixedSize=1;fontSize=11.29;fillColor=#d5e8d4;strokeColor=#82b366;size=0;" parent="WIyWlLk6GJQsqaUBKTNV-1" vertex="1">
          <mxGeometry x="329" y="624.5" width="110" height="40" as="geometry" />
        </mxCell>
        <mxCell id="9w9tnTH3Nwo0CElRM9sm-233" value="" style="edgeStyle=orthogonalEdgeStyle;rounded=0;orthogonalLoop=1;jettySize=auto;html=1;" parent="WIyWlLk6GJQsqaUBKTNV-1" source="9w9tnTH3Nwo0CElRM9sm-234" target="9w9tnTH3Nwo0CElRM9sm-232" edge="1">
          <mxGeometry relative="1" as="geometry" />
        </mxCell>
        <mxCell id="9w9tnTH3Nwo0CElRM9sm-234" value="&lt;font face=&quot;Calibri&quot; style=&quot;font-size: 11.29px;&quot;&gt;Start&lt;/font&gt;" style="html=1;dashed=0;whiteSpace=wrap;shape=mxgraph.dfd.start;fillColor=#dae8fc;strokeColor=#6c8ebf;" parent="WIyWlLk6GJQsqaUBKTNV-1" vertex="1">
          <mxGeometry x="344" y="565.5" width="80" height="30" as="geometry" />
        </mxCell>
        <mxCell id="9w9tnTH3Nwo0CElRM9sm-235" value="Fail" style="edgeStyle=orthogonalEdgeStyle;rounded=1;orthogonalLoop=1;jettySize=auto;html=1;exitX=1;exitY=0.5;exitDx=0;exitDy=0;entryX=0.5;entryY=0.5;entryDx=0;entryDy=15;entryPerimeter=0;" parent="WIyWlLk6GJQsqaUBKTNV-1" source="9w9tnTH3Nwo0CElRM9sm-236" target="9w9tnTH3Nwo0CElRM9sm-237" edge="1">
          <mxGeometry x="-0.3462" relative="1" as="geometry">
            <mxPoint as="offset" />
            <mxPoint x="508.75" y="903.5" as="targetPoint" />
          </mxGeometry>
        </mxCell>
        <mxCell id="9w9tnTH3Nwo0CElRM9sm-236" value="&lt;span style=&quot;font-size: 11.29px;&quot;&gt;Port &amp;amp; Pin Check&lt;/span&gt;" style="shape=process;whiteSpace=wrap;html=1;backgroundOutline=1;fontSize=11.29;fillColor=#ffe6cc;strokeColor=#d79b00;fontFamily=Calibri;" parent="WIyWlLk6GJQsqaUBKTNV-1" vertex="1">
          <mxGeometry x="326" y="794.75" width="116" height="46" as="geometry" />
        </mxCell>
        <mxCell id="9w9tnTH3Nwo0CElRM9sm-237" value="&lt;font style=&quot;font-size: 11.29px;&quot;&gt;&lt;font face=&quot;Calibri&quot;&gt;return&lt;br&gt;GPIO_ERROR&lt;/font&gt;&lt;br&gt;&lt;/font&gt;" style="html=1;dashed=0;whiteSpace=wrap;shape=mxgraph.dfd.start;fillColor=#f8cecc;strokeColor=#b85450;" parent="WIyWlLk6GJQsqaUBKTNV-1" vertex="1">
          <mxGeometry x="460" y="753.5" width="83.5" height="30" as="geometry" />
        </mxCell>
        <mxCell id="9w9tnTH3Nwo0CElRM9sm-238" value="No" style="edgeStyle=orthogonalEdgeStyle;rounded=0;orthogonalLoop=1;jettySize=auto;html=1;" parent="WIyWlLk6GJQsqaUBKTNV-1" source="9w9tnTH3Nwo0CElRM9sm-240" target="9w9tnTH3Nwo0CElRM9sm-236" edge="1">
          <mxGeometry relative="1" as="geometry" />
        </mxCell>
        <mxCell id="9w9tnTH3Nwo0CElRM9sm-239" value="Yes" style="edgeStyle=orthogonalEdgeStyle;rounded=1;orthogonalLoop=1;jettySize=auto;html=1;exitX=1;exitY=0.5;exitDx=0;exitDy=0;entryX=0.5;entryY=0.5;entryDx=0;entryDy=-15;entryPerimeter=0;" parent="WIyWlLk6GJQsqaUBKTNV-1" source="9w9tnTH3Nwo0CElRM9sm-240" target="9w9tnTH3Nwo0CElRM9sm-237" edge="1">
          <mxGeometry relative="1" as="geometry" />
        </mxCell>
        <mxCell id="9w9tnTH3Nwo0CElRM9sm-240" value="&lt;font face=&quot;Calibri&quot;&gt;cbf ==&amp;nbsp;&lt;br style=&quot;font-size: 11.29px;&quot;&gt;NULL?&lt;br&gt;&lt;/font&gt;" style="rhombus;whiteSpace=wrap;html=1;fontSize=11.29;fillColor=#fff2cc;strokeColor=#d6b656;" parent="WIyWlLk6GJQsqaUBKTNV-1" vertex="1">
          <mxGeometry x="344" y="685.5" width="80" height="80" as="geometry" />
        </mxCell>
        <mxCell id="9w9tnTH3Nwo0CElRM9sm-248" value="No" style="edgeStyle=orthogonalEdgeStyle;rounded=0;orthogonalLoop=1;jettySize=auto;html=1;exitX=1;exitY=0.5;exitDx=0;exitDy=0;entryX=0.5;entryY=0.5;entryDx=0;entryDy=15;entryPerimeter=0;" parent="WIyWlLk6GJQsqaUBKTNV-1" source="9w9tnTH3Nwo0CElRM9sm-247" target="PaLshwyQZhTTM3AdKfok-209" edge="1">
          <mxGeometry relative="1" as="geometry" />
        </mxCell>
        <mxCell id="9w9tnTH3Nwo0CElRM9sm-247" value="&lt;font style=&quot;font-size: 11.29px;&quot; face=&quot;Calibri&quot;&gt;Port is an &lt;br&gt;output&lt;br&gt;port?&lt;/font&gt;" style="rhombus;whiteSpace=wrap;html=1;fontSize=11.29;fillColor=#fff2cc;strokeColor=#d6b656;" parent="WIyWlLk6GJQsqaUBKTNV-1" vertex="1">
          <mxGeometry x="131.5" y="-820" width="80" height="80" as="geometry" />
        </mxCell>
        <mxCell id="9w9tnTH3Nwo0CElRM9sm-258" style="edgeStyle=orthogonalEdgeStyle;rounded=0;orthogonalLoop=1;jettySize=auto;html=1;exitX=0.5;exitY=1;exitDx=0;exitDy=0;entryX=0.5;entryY=0;entryDx=0;entryDy=0;" parent="WIyWlLk6GJQsqaUBKTNV-1" source="9w9tnTH3Nwo0CElRM9sm-256" target="9w9tnTH3Nwo0CElRM9sm-192" edge="1">
          <mxGeometry relative="1" as="geometry" />
        </mxCell>
        <mxCell id="9w9tnTH3Nwo0CElRM9sm-256" value="&lt;font face=&quot;Calibri&quot;&gt;valid&lt;br&gt;int_event?&lt;br&gt;&lt;/font&gt;" style="rhombus;whiteSpace=wrap;html=1;fontSize=11.29;fillColor=#fff2cc;strokeColor=#d6b656;" parent="WIyWlLk6GJQsqaUBKTNV-1" vertex="1">
          <mxGeometry x="926.92" y="305.5" width="80" height="80" as="geometry" />
        </mxCell>
        <mxCell id="9w9tnTH3Nwo0CElRM9sm-275" value="" style="edgeStyle=orthogonalEdgeStyle;rounded=0;orthogonalLoop=1;jettySize=auto;html=1;" parent="WIyWlLk6GJQsqaUBKTNV-1" source="9w9tnTH3Nwo0CElRM9sm-259" target="9w9tnTH3Nwo0CElRM9sm-263" edge="1">
          <mxGeometry relative="1" as="geometry" />
        </mxCell>
        <mxCell id="9w9tnTH3Nwo0CElRM9sm-276" style="edgeStyle=orthogonalEdgeStyle;rounded=0;orthogonalLoop=1;jettySize=auto;html=1;exitX=0.5;exitY=1;exitDx=0;exitDy=0;entryX=0;entryY=0.5;entryDx=0;entryDy=0;" parent="WIyWlLk6GJQsqaUBKTNV-1" source="9w9tnTH3Nwo0CElRM9sm-259" target="9w9tnTH3Nwo0CElRM9sm-265" edge="1">
          <mxGeometry relative="1" as="geometry" />
        </mxCell>
        <mxCell id="9w9tnTH3Nwo0CElRM9sm-259" value="&lt;font face=&quot;Calibri&quot;&gt;int_event&lt;br&gt;== both_edges?&lt;br&gt;&lt;/font&gt;" style="rhombus;whiteSpace=wrap;html=1;fontSize=11.29;fillColor=#fff2cc;strokeColor=#d6b656;" parent="WIyWlLk6GJQsqaUBKTNV-1" vertex="1">
          <mxGeometry x="921.36" y="550" width="89.74" height="98" as="geometry" />
        </mxCell>
        <mxCell id="9w9tnTH3Nwo0CElRM9sm-272" style="edgeStyle=orthogonalEdgeStyle;rounded=0;orthogonalLoop=1;jettySize=auto;html=1;exitX=1;exitY=0.5;exitDx=0;exitDy=0;entryX=0;entryY=0.5;entryDx=0;entryDy=0;" parent="WIyWlLk6GJQsqaUBKTNV-1" source="9w9tnTH3Nwo0CElRM9sm-261" target="9w9tnTH3Nwo0CElRM9sm-262" edge="1">
          <mxGeometry relative="1" as="geometry" />
        </mxCell>
        <mxCell id="9w9tnTH3Nwo0CElRM9sm-261" value="&lt;font face=&quot;Calibri&quot;&gt;&lt;span style=&quot;font-size: 11.29px;&quot;&gt;Clear the raw interrupt&lt;br&gt;flag for the pin&lt;br&gt;&lt;/span&gt;&lt;/font&gt;" style="rounded=0;whiteSpace=wrap;html=1;fontSize=11.29;fillColor=#d5e8d4;strokeColor=#82b366;" parent="WIyWlLk6GJQsqaUBKTNV-1" vertex="1">
          <mxGeometry x="1203.1" y="615" width="109.75" height="44" as="geometry" />
        </mxCell>
        <mxCell id="9w9tnTH3Nwo0CElRM9sm-273" value="" style="edgeStyle=orthogonalEdgeStyle;rounded=0;orthogonalLoop=1;jettySize=auto;html=1;" parent="WIyWlLk6GJQsqaUBKTNV-1" source="9w9tnTH3Nwo0CElRM9sm-262" target="9w9tnTH3Nwo0CElRM9sm-205" edge="1">
          <mxGeometry relative="1" as="geometry" />
        </mxCell>
        <mxCell id="9w9tnTH3Nwo0CElRM9sm-262" value="&lt;font face=&quot;Calibri&quot;&gt;&lt;span style=&quot;font-size: 11.29px;&quot;&gt;Enable the pin interrupt&lt;/span&gt;&lt;/font&gt;" style="rounded=0;whiteSpace=wrap;html=1;fontSize=11.29;fillColor=#d5e8d4;strokeColor=#82b366;" parent="WIyWlLk6GJQsqaUBKTNV-1" vertex="1">
          <mxGeometry x="1334.85" y="615" width="109.75" height="44" as="geometry" />
        </mxCell>
        <mxCell id="9w9tnTH3Nwo0CElRM9sm-269" style="edgeStyle=orthogonalEdgeStyle;rounded=0;orthogonalLoop=1;jettySize=auto;html=1;exitX=1;exitY=0.5;exitDx=0;exitDy=0;entryX=0.5;entryY=0;entryDx=0;entryDy=0;" parent="WIyWlLk6GJQsqaUBKTNV-1" source="9w9tnTH3Nwo0CElRM9sm-263" target="9w9tnTH3Nwo0CElRM9sm-268" edge="1">
          <mxGeometry relative="1" as="geometry" />
        </mxCell>
        <mxCell id="9w9tnTH3Nwo0CElRM9sm-263" value="&lt;font face=&quot;Calibri&quot;&gt;Set the bit for this pin&lt;br&gt;&lt;span style=&quot;font-size: 11.29px;&quot;&gt;in GPIOIBE(port)&lt;/span&gt;&lt;br&gt;&lt;/font&gt;" style="rounded=0;whiteSpace=wrap;html=1;fontSize=11.29;fillColor=#d5e8d4;strokeColor=#82b366;" parent="WIyWlLk6GJQsqaUBKTNV-1" vertex="1">
          <mxGeometry x="1049.09" y="578" width="109.75" height="44" as="geometry" />
        </mxCell>
        <mxCell id="9w9tnTH3Nwo0CElRM9sm-270" style="edgeStyle=orthogonalEdgeStyle;rounded=0;orthogonalLoop=1;jettySize=auto;html=1;exitX=1;exitY=0.5;exitDx=0;exitDy=0;entryX=0.5;entryY=1;entryDx=0;entryDy=0;" parent="WIyWlLk6GJQsqaUBKTNV-1" source="9w9tnTH3Nwo0CElRM9sm-265" target="9w9tnTH3Nwo0CElRM9sm-268" edge="1">
          <mxGeometry relative="1" as="geometry" />
        </mxCell>
        <mxCell id="9w9tnTH3Nwo0CElRM9sm-265" value="&lt;font face=&quot;Calibri&quot;&gt;Configure the interrupt level (high/low)&lt;/font&gt;" style="rounded=0;whiteSpace=wrap;html=1;fontSize=11.29;fillColor=#d5e8d4;strokeColor=#82b366;" parent="WIyWlLk6GJQsqaUBKTNV-1" vertex="1">
          <mxGeometry x="1044.6" y="656" width="114.24" height="44" as="geometry" />
        </mxCell>
        <mxCell id="9w9tnTH3Nwo0CElRM9sm-274" value="" style="edgeStyle=orthogonalEdgeStyle;rounded=0;orthogonalLoop=1;jettySize=auto;html=1;" parent="WIyWlLk6GJQsqaUBKTNV-1" source="9w9tnTH3Nwo0CElRM9sm-268" target="9w9tnTH3Nwo0CElRM9sm-261" edge="1">
          <mxGeometry relative="1" as="geometry" />
        </mxCell>
        <mxCell id="9w9tnTH3Nwo0CElRM9sm-268" value="" style="rhombus;whiteSpace=wrap;html=1;" parent="WIyWlLk6GJQsqaUBKTNV-1" vertex="1">
          <mxGeometry x="1163.1" y="625" width="24.25" height="24" as="geometry" />
        </mxCell>
        <mxCell id="9w9tnTH3Nwo0CElRM9sm-277" style="edgeStyle=orthogonalEdgeStyle;rounded=0;orthogonalLoop=1;jettySize=auto;html=1;exitX=0.5;exitY=1;exitDx=0;exitDy=0;entryX=0.5;entryY=0;entryDx=0;entryDy=0;" parent="WIyWlLk6GJQsqaUBKTNV-1" source="9w9tnTH3Nwo0CElRM9sm-278" target="9w9tnTH3Nwo0CElRM9sm-283" edge="1">
          <mxGeometry relative="1" as="geometry" />
        </mxCell>
        <mxCell id="9w9tnTH3Nwo0CElRM9sm-278" value="&lt;font face=&quot;Calibri&quot;&gt;Get port and pin&lt;br&gt;&lt;/font&gt;" style="shape=parallelogram;perimeter=parallelogramPerimeter;whiteSpace=wrap;html=1;fixedSize=1;fontSize=11.29;fillColor=#d5e8d4;strokeColor=#82b366;size=0;" parent="WIyWlLk6GJQsqaUBKTNV-1" vertex="1">
          <mxGeometry x="102.25000000000006" y="-446" width="110" height="40" as="geometry" />
        </mxCell>
        <mxCell id="9w9tnTH3Nwo0CElRM9sm-279" value="" style="edgeStyle=orthogonalEdgeStyle;rounded=0;orthogonalLoop=1;jettySize=auto;html=1;" parent="WIyWlLk6GJQsqaUBKTNV-1" source="9w9tnTH3Nwo0CElRM9sm-280" target="9w9tnTH3Nwo0CElRM9sm-278" edge="1">
          <mxGeometry relative="1" as="geometry" />
        </mxCell>
        <mxCell id="9w9tnTH3Nwo0CElRM9sm-280" value="&lt;font face=&quot;Calibri&quot; style=&quot;font-size: 11.29px;&quot;&gt;Start&lt;/font&gt;" style="html=1;dashed=0;whiteSpace=wrap;shape=mxgraph.dfd.start;fillColor=#dae8fc;strokeColor=#6c8ebf;" parent="WIyWlLk6GJQsqaUBKTNV-1" vertex="1">
          <mxGeometry x="117.25000000000006" y="-505" width="80" height="30" as="geometry" />
        </mxCell>
        <mxCell id="9w9tnTH3Nwo0CElRM9sm-281" value="Pass" style="edgeStyle=orthogonalEdgeStyle;rounded=0;orthogonalLoop=1;jettySize=auto;html=1;entryX=0.5;entryY=0;entryDx=0;entryDy=0;" parent="WIyWlLk6GJQsqaUBKTNV-1" source="9w9tnTH3Nwo0CElRM9sm-283" target="9w9tnTH3Nwo0CElRM9sm-286" edge="1">
          <mxGeometry relative="1" as="geometry" />
        </mxCell>
        <mxCell id="9w9tnTH3Nwo0CElRM9sm-282" value="Fail" style="edgeStyle=orthogonalEdgeStyle;rounded=1;orthogonalLoop=1;jettySize=auto;html=1;" parent="WIyWlLk6GJQsqaUBKTNV-1" source="9w9tnTH3Nwo0CElRM9sm-283" target="9w9tnTH3Nwo0CElRM9sm-284" edge="1">
          <mxGeometry relative="1" as="geometry">
            <Array as="points">
              <mxPoint x="310.25000000000006" y="-355" />
            </Array>
          </mxGeometry>
        </mxCell>
        <mxCell id="9w9tnTH3Nwo0CElRM9sm-283" value="&lt;font style=&quot;font-size: 11.29px;&quot;&gt;Port &amp;amp; Pin Check&lt;/font&gt;" style="shape=process;whiteSpace=wrap;html=1;backgroundOutline=1;fontSize=11.29;fillColor=#ffe6cc;strokeColor=#d79b00;fontFamily=Calibri;" parent="WIyWlLk6GJQsqaUBKTNV-1" vertex="1">
          <mxGeometry x="99.25000000000006" y="-378" width="116" height="46" as="geometry" />
        </mxCell>
        <mxCell id="9w9tnTH3Nwo0CElRM9sm-284" value="&lt;font style=&quot;font-size: 11.29px;&quot;&gt;&lt;font face=&quot;Calibri&quot;&gt;return&lt;br&gt;GPIO_ERROR&lt;/font&gt;&lt;br&gt;&lt;/font&gt;" style="html=1;dashed=0;whiteSpace=wrap;shape=mxgraph.dfd.start;fillColor=#f8cecc;strokeColor=#b85450;" parent="WIyWlLk6GJQsqaUBKTNV-1" vertex="1">
          <mxGeometry x="269.00000000000006" y="-318.5" width="83.5" height="30" as="geometry" />
        </mxCell>
        <mxCell id="9w9tnTH3Nwo0CElRM9sm-285" value="No" style="edgeStyle=orthogonalEdgeStyle;rounded=1;orthogonalLoop=1;jettySize=auto;html=1;exitX=1;exitY=0.5;exitDx=0;exitDy=0;entryX=0.5;entryY=0.5;entryDx=0;entryDy=15;entryPerimeter=0;" parent="WIyWlLk6GJQsqaUBKTNV-1" source="9w9tnTH3Nwo0CElRM9sm-286" target="9w9tnTH3Nwo0CElRM9sm-284" edge="1">
          <mxGeometry relative="1" as="geometry" />
        </mxCell>
        <mxCell id="9w9tnTH3Nwo0CElRM9sm-286" value="&lt;font face=&quot;Calibri&quot;&gt;pinDir ==&amp;nbsp;&lt;br style=&quot;font-size: 11.29px;&quot;&gt;output?&lt;/font&gt;" style="rhombus;whiteSpace=wrap;html=1;fontSize=11.29;fillColor=#fff2cc;strokeColor=#d6b656;" parent="WIyWlLk6GJQsqaUBKTNV-1" vertex="1">
          <mxGeometry x="117.25000000000006" y="-297" width="80" height="80" as="geometry" />
        </mxCell>
        <mxCell id="uAD5hzwG8fl8jrlbHyVI-0" value="&lt;b&gt;gpio_pin_init&lt;/b&gt;" style="rounded=0;whiteSpace=wrap;html=1;strokeColor=#FFFFFF;" vertex="1" parent="WIyWlLk6GJQsqaUBKTNV-1">
          <mxGeometry x="940" y="-1096" width="110" height="37" as="geometry" />
        </mxCell>
      </root>
    </mxGraphModel>
  </diagram>
</mxfile>
